<svg id="Component_2_1" data-name="Component 2 – 1" xmlns="http://www.w3.org/2000/svg" width="98.852" height="41.964" viewBox="0 0 98.852 41.964">
  <path id="Path_2" data-name="Path 2" d="M8.58,4.524A8.712,8.712,0,0,1,3.77,3.458,3.92,3.92,0,0,1,2.132.052q0-.52.572-.52a9.572,9.572,0,0,1,1.43.234A20.061,20.061,0,0,0,7.8,0,33.17,33.17,0,0,0,18.538-1.638,20.088,20.088,0,0,0,26.1-5.928a7.781,7.781,0,0,0,2.756-5.616q0-3.64-3.8-4.914a30.909,30.909,0,0,0-9.672-1.274l-3.848.052q-.78,2.652-1.378,4.888T9.1-8.892Q7.592-3.224,7.02-1.248a4.473,4.473,0,0,1-2.7-.832A2.448,2.448,0,0,1,3.172-4.108,7.465,7.465,0,0,1,3.692-6.5L3.9-7.124,4.576-9.2q5.772-17.992,9.88-25.948A20.294,20.294,0,0,0,9.1-33.072q-.26.1-.728.338A1.8,1.8,0,0,1,7.7-32.5a2.148,2.148,0,0,1-1.3-.754,2.043,2.043,0,0,1-.78-1.274,51.334,51.334,0,0,1,6.422-2.184,27.076,27.076,0,0,1,6.682-.728,22.084,22.084,0,0,1,9.1,1.768q3.952,1.768,3.952,6.708a7.56,7.56,0,0,1-3.146,6.37A20.662,20.662,0,0,1,20.9-19.136q5.876.78,8.528,3.172a6.965,6.965,0,0,1,2.652,5.2,10.661,10.661,0,0,1-3.926,8.216A26.23,26.23,0,0,1,18.694,2.73,33.082,33.082,0,0,1,8.58,4.524Zm3.484-24.18A26.769,26.769,0,0,0,23.322-22.23a7.57,7.57,0,0,0,4.5-7.15q0-6.24-9.776-6.24A94.518,94.518,0,0,0,12.064-19.656ZM45.812,4.524a12.477,12.477,0,0,1-5.8-1.3,9.915,9.915,0,0,1-3.926-3.51,8.886,8.886,0,0,1-1.4-4.862A11.726,11.726,0,0,1,36.4-11.18a15.188,15.188,0,0,1,4.758-4.94,16.046,16.046,0,0,1,6.786-2.548,11.254,11.254,0,0,1-2.782-3.666,9.667,9.667,0,0,1-.962-4.134,10.644,10.644,0,0,1,1.43-5.33,10.9,10.9,0,0,1,4.03-4.056,11.344,11.344,0,0,1,5.876-1.534,6.864,6.864,0,0,1,4.758,1.482,5.489,5.489,0,0,1,1.638,4.29,11.959,11.959,0,0,1-.65,3.848,9.786,9.786,0,0,1-1.664,3.146,2.753,2.753,0,0,1-2,1.222q-1.3,0-2.5-2.132,4.472-3.64,4.472-6.812a3.232,3.232,0,0,0-.884-2.392,3.525,3.525,0,0,0-2.6-.884,6.1,6.1,0,0,0-5.3,2.782,11.638,11.638,0,0,0-1.924,6.786,13.131,13.131,0,0,0,.78,4.5,8.948,8.948,0,0,0,3.016,3.926,15.1,15.1,0,0,0-6.422,2.522,14.376,14.376,0,0,0-4.316,4.628A10.652,10.652,0,0,0,40.4-5.148a7.937,7.937,0,0,0,1.69,4.992,6.012,6.012,0,0,0,5.07,2.184A12.33,12.33,0,0,0,54.08-.182a18.848,18.848,0,0,0,5.564-5.772,17.937,17.937,0,0,0,2.7-7.462,23.569,23.569,0,0,0-2.6.26q-1.352.208-3.172.572-.832.1-1.3.208a3.846,3.846,0,0,1,1.612-3.432,7.921,7.921,0,0,1,4.264-.988,30.092,30.092,0,0,1,4.368.416,25.368,25.368,0,0,0,4.524.468,4.969,4.969,0,0,1-1.352,1.976,2.474,2.474,0,0,1-1.4.416l-2.912.052A19.452,19.452,0,0,1,61.2-4.654,21.616,21.616,0,0,1,54.418,2,16.118,16.118,0,0,1,45.812,4.524Zm31.668,0a8.712,8.712,0,0,1-4.81-1.066A3.92,3.92,0,0,1,71.032.052q0-.52.572-.52a9.572,9.572,0,0,1,1.43.234A20.061,20.061,0,0,0,76.7,0,33.17,33.17,0,0,0,87.438-1.638,20.088,20.088,0,0,0,95-5.928a7.781,7.781,0,0,0,2.756-5.616q0-3.64-3.8-4.914a30.909,30.909,0,0,0-9.672-1.274l-3.848.052q-.78,2.652-1.378,4.888T78-8.892q-1.508,5.668-2.08,7.644a4.473,4.473,0,0,1-2.7-.832,2.448,2.448,0,0,1-1.144-2.028,7.465,7.465,0,0,1,.52-2.392l.208-.624.676-2.08q5.772-17.992,9.88-25.948A20.294,20.294,0,0,0,78-33.072q-.26.1-.728.338a1.8,1.8,0,0,1-.676.234,2.148,2.148,0,0,1-1.3-.754,2.043,2.043,0,0,1-.78-1.274,51.335,51.335,0,0,1,6.422-2.184,27.076,27.076,0,0,1,6.682-.728,22.083,22.083,0,0,1,9.1,1.768q3.952,1.768,3.952,6.708a7.56,7.56,0,0,1-3.146,6.37A20.662,20.662,0,0,1,89.8-19.136q5.876.78,8.528,3.172a6.965,6.965,0,0,1,2.652,5.2,10.661,10.661,0,0,1-3.926,8.216A26.23,26.23,0,0,1,87.594,2.73,33.082,33.082,0,0,1,77.48,4.524Zm3.484-24.18A26.769,26.769,0,0,0,92.222-22.23a7.57,7.57,0,0,0,4.5-7.15q0-6.24-9.776-6.24A94.517,94.517,0,0,0,80.964-19.656Z" transform="translate(-2.132 37.44)" fill="#f0f3bd"/>
</svg>
