<?xml version="1.0" encoding="utf-8"?>
<!-- Generator: Adobe Illustrator 24.0.0, SVG Export Plug-In . SVG Version: 6.00 Build 0)  -->
<svg version="1.1" id="Layer_1" xmlns="http://www.w3.org/2000/svg" xmlns:xlink="http://www.w3.org/1999/xlink" x="0px" y="0px"
	 viewBox="0 0 551.4 218.1" enable-background="new 0 0 551.4 218.1" xml:space="preserve">
<path fill="none" stroke="#FFFFFF" stroke-miterlimit="10" d="M2,50.7c-1.3-0.9-2-2.3-2-4.2c0-0.4,0.2-0.6,0.7-0.6
	c0.3,0,0.8,0.1,1.8,0.3c0.9,0.2,2.4,0.3,4.5,0.3c4.9,0,9.3-0.7,13.2-2c3.9-1.3,7.1-3.1,9.3-5.3c2.3-2.2,3.4-4.5,3.4-6.9
	c0-3-1.6-5-4.7-6c-3.1-1-7.1-1.6-11.9-1.6l-4.7,0.1c-0.6,2.2-1.2,4.2-1.7,6c-0.5,1.8-0.9,3.4-1.3,4.8c-1.2,4.7-2.1,7.8-2.6,9.4
	c-1.3,0-2.4-0.3-3.3-1c-0.9-0.7-1.4-1.5-1.4-2.5c0-0.8,0.2-1.7,0.6-2.9l0.3-0.8L3,35.1C7.7,20.3,11.8,9.7,15.2,3.1
	C13,3.6,10.8,4.5,8.6,5.7C8.4,5.8,8.1,5.9,7.7,6.1C7.3,6.3,7,6.4,6.9,6.4c-0.4,0-1-0.3-1.6-0.9c-0.6-0.6-1-1.1-1-1.6
	c2.9-1.2,5.6-2.1,7.9-2.7c2.3-0.6,5.1-0.9,8.2-0.9c4.2,0,8,0.7,11.2,2.2c3.2,1.5,4.9,4.2,4.9,8.3c0,3.3-1.3,5.9-3.9,7.8
	c-2.6,1.9-5.8,3.4-9.5,4.3c4.8,0.6,8.3,1.9,10.5,3.9c2.2,2,3.3,4.1,3.3,6.4c0,3.9-1.6,7.3-4.8,10.1c-3.2,2.9-7.1,5-11.6,6.5
	C15.8,51.2,11.7,52,7.9,52C5.3,52,3.3,51.5,2,50.7z M26.1,19c3.7-1.9,5.5-4.8,5.5-8.8c0-5.1-4-7.7-12-7.7
	c-2.4,4.6-4.8,11.2-7.4,19.6C17.8,22,22.4,20.9,26.1,19z"/>
<path fill="none" stroke="#FFFFFF" stroke-miterlimit="10" d="M40.3,46.3c-0.9-1.3-1.4-2.9-1.4-4.7c0-1.5,0.3-3.5,1-5.8
	c0.7-2.3,1.5-4.3,2.4-6c0.9-1.7,1.7-2.6,2.4-2.6c0.3,0,0.8,0.2,1.4,0.5c0.6,0.3,1.2,0.7,1.6,1.2c-0.9,1.3-1.8,3.2-2.8,5.7
	c-1,2.5-1.4,4.6-1.4,6.4c0,0.8,0.1,1.7,0.4,2.5c0.2,0.9,0.8,1.3,1.6,1.3c1.6,0,3.5-1.8,5.7-5.3c2.2-3.5,4.1-7.1,5.7-10.7
	c2.6,0.4,3.8,1.2,3.8,2.2c0,0.1-0.3,0.7-0.8,1.9c-0.9,2.1-1.7,4-2.3,5.8s-1,3.4-1,4.7c0,1.5,0.6,2.2,1.7,2.2c0.9,0,2-0.4,3.2-1.2
	c1.3-0.8,2.5-2,3.9-3.6c1.3-1.6,2.5-3.4,3.5-5.4l1,0.8c-0.9,2.3-2.2,4.4-3.6,6.2c-1.5,1.8-3.1,3.3-4.8,4.3s-3.4,1.6-5,1.6
	c-1.9,0-3.1-0.7-3.6-2c-0.5-1.3-0.8-3-0.8-5.2c-1.5,2.2-2.8,4-4.1,5.2s-2.6,1.9-4,1.9C42.4,48.3,41.3,47.7,40.3,46.3z"/>
<path fill="none" stroke="#FFFFFF" stroke-miterlimit="10" d="M85,46.5c-0.9-0.8-1.3-1.9-1.3-3.2c0-0.6,0.1-1.2,0.3-1.9
	c0.2-0.7,0.4-1.4,0.6-2.2c0.6-2,0.9-3.4,0.9-4.4c0-0.9-0.2-1.5-0.6-1.9c-0.4-0.4-1-0.6-1.6-0.6c-2.3,0-4.5,1.4-6.8,4.3
	c-2.3,2.8-4.8,6.4-7.4,10.8c-1.8,0-3.2-0.6-4.2-1.9l0.6-1.6c2.5-6.1,3.8-10.6,3.8-13.6c0.3-0.4,0.8-0.7,1.5-1.1
	c0.6-0.3,1.3-0.5,1.9-0.5c0.7,0,1.3,0.2,1.7,0.5c0.4,0.3,0.6,0.8,0.6,1.4c0,1.2-0.4,3.1-1.1,5.7c1.9-2.6,3.9-4.6,6-6.3
	c2.1-1.6,4.1-2.4,6.1-2.4c1.7,0,3,0.6,4,1.8c0.9,1.2,1.4,2.6,1.4,4.2c0,0.9-0.1,1.8-0.4,2.7c-0.2,0.9-0.6,1.8-1.1,2.9
	c-0.7,1.8-1.1,3.1-1.1,4c0,0.6,0.1,1.1,0.4,1.4c0.3,0.3,0.7,0.4,1.1,0.4c1.4,0,2.9-1,4.6-2.9c1.6-1.9,3.1-4.2,4.4-6.9l1.1,0.9
	c-1.5,3.5-3.2,6.3-5.1,8.4s-4,3.1-6.4,3.1C87.1,47.7,85.9,47.3,85,46.5z"/>
<path fill="none" stroke="#FFFFFF" stroke-miterlimit="10" d="M97.6,63.3c-0.9-0.7-1.3-1.7-1.3-3c0-1.7,0.6-3.2,1.9-4.5
	c1.3-1.4,2.7-2.5,4.4-3.5s3.9-2.1,6.6-3.4c1.1-2.7,1.9-5.4,2.6-8c-3.5,4.4-6.7,6.5-9.7,6.5c-1.7,0-3.1-0.6-4.1-1.8s-1.5-2.8-1.5-4.7
	c0-2.9,0.9-5.6,2.8-8.1c1.9-2.6,4.2-4.6,7-6.2c2.8-1.6,5.4-2.3,7.9-2.3c1.3,0,2.3,0.2,3,0.7c0.7,0.5,1.1,1,1.1,1.7
	c0,0.4-0.1,0.8-0.4,1.2c-0.3,0.3-0.5,0.5-0.6,0.6c-0.4-0.4-0.9-0.7-1.3-0.9c-0.4-0.2-1-0.3-1.6-0.3c-2.1,0-4.1,0.8-6.1,2.3
	c-2,1.6-3.6,3.4-4.8,5.6c-1.2,2.2-1.8,4.2-1.8,5.9c0,0.9,0.2,1.5,0.5,2c0.4,0.4,0.8,0.7,1.4,0.7c1.2,0,2.6-0.7,4.3-2.2
	c1.7-1.5,3.4-3.4,5-5.8c0.5-2.4,1-4.1,1.7-5.2c0.6-1,1.6-1.6,2.8-1.6c0.6,0,1.2,0.1,1.9,0.3c0,1.1-0.5,3.3-1.4,6.7
	c-0.9,3.3-2.1,6.8-3.4,10.4c2.1-0.9,4.2-2.3,6.2-4.2c2-1.9,3.4-4.1,4.3-6.6l1.2,1.2c-0.9,2.7-2.6,5.1-5,7.3c-2.4,2.2-4.9,3.8-7.4,5
	c-2,4.7-4,8.5-6.1,11.2c-2.1,2.8-4.4,4.1-6.8,4.1C99.5,64.3,98.5,64,97.6,63.3z M103.7,59c1.4-1.6,2.8-4,4.2-7.2
	c-2.8,1.4-4.9,2.7-6.5,3.9c-1.5,1.2-2.3,2.5-2.3,3.9c0,0.6,0.1,1,0.4,1.3c0.2,0.3,0.5,0.5,0.9,0.5C101.3,61.4,102.4,60.6,103.7,59z"
	/>
<path fill="none" stroke="#FFFFFF" stroke-miterlimit="10" d="M123.1,47.9c-1-1-1.5-2.4-1.5-4.2c0-2.5,0.9-5.2,2.7-8.3
	c1.8-3.1,4.1-5.7,6.9-7.8c2.8-2.1,5.6-3.2,8.4-3.2c1.9,0,3.4,0.5,4.7,1.4c1.3,1,1.9,2.2,1.9,3.7c0,2-1.2,3-3.6,3.1
	c1.5,0.5,2.3,1.1,2.3,1.9c0,0.3-0.1,0.7-0.4,1.3c-0.3,0.6-0.6,1.2-1,1.9c-0.7,1.1-1.2,2.1-1.6,2.9s-0.6,1.6-0.6,2.3
	c0,0.6,0.2,1.2,0.5,1.6c0.3,0.4,0.8,0.7,1.4,0.7c1.2,0,2.7-0.8,4.6-2.5s3.7-4.2,5.4-7.5l1.2,1.2c-1.6,3.5-3.5,6.4-5.9,8.5
	c-2.3,2.2-4.7,3.2-7.1,3.2c-1.7,0-3-0.6-3.9-1.7c-0.9-1.1-1.4-2.4-1.4-3.9c-1.9,2.3-3.6,4-4.9,5.1c-1.4,1.1-2.8,1.6-4.4,1.6
	C125.4,49.4,124.1,48.9,123.1,47.9z M133.4,42.9c2-2.2,4.2-5,6.8-8.4l1.3-1.7c0.1-0.2,0.3-0.3,0.5-0.3l0.3,0.1
	c0.2-0.7,0.3-1.5,0.3-2.4c0-2.2-0.9-3.3-2.7-3.3c-1.9,0-3.8,1-5.9,3c-2,2-3.8,4.4-5.2,7.2c-1.4,2.8-2.1,5.1-2.1,7.1
	c0,0.7,0.1,1.2,0.4,1.6c0.2,0.3,0.6,0.5,1.1,0.5C129.7,46.2,131.4,45.1,133.4,42.9z"/>
<path fill="none" stroke="#FFFFFF" stroke-miterlimit="10" d="M168.3,48c0-1.6,0.9-4.1,2.6-7.5c1.7-3.4,4-7.3,6.8-11.7
	c-2.6-0.2-5.7-0.3-9.4-0.3c1-2.8,3.5-4.2,7.4-4.2c0.9,0,2.4,0.1,4.7,0.4c4.8-6.9,9.2-12.7,13.4-17.5c4.1-4.7,6.9-7.1,8.3-7.1
	c1.1,0,2.6,0.8,4.4,2.5c-0.9,0.6-2.1,3.3-3.7,8c-1.6,4.7-3.1,9.8-4.4,15.4c-1.3,5.6-1.9,10.1-1.9,13.5c0,1.7,0.2,3,0.5,3.8
	c0.4,0.8,0.9,1.2,1.7,1.2c1.1,0,2.3-0.8,3.8-2.3c1.5-1.6,3-4,4.7-7.2l1.2,1.2c-1.4,3.6-3.1,6.5-5.2,8.7c-2.1,2.2-4.4,3.3-6.7,3.3
	c-2,0-3.4-0.9-4.3-2.6s-1.3-4.2-1.3-7.4c0-2.1,0.3-4.7,0.8-7.9c-2.2-0.3-5.2-0.7-9.2-1.2c-4,7-7.7,14.6-11.3,22.8
	C169.3,51,168.3,49.6,168.3,48z M195.3,16.1c1.2-3.8,2.5-7.3,3.8-10.3c-1.9,1.5-4.1,4-6.6,7.4c-2.5,3.5-5.2,7.6-7.9,12.3l4.8,1
	c1.3,0.3,2.3,0.6,2.9,0.7C193.1,23.7,194.1,20,195.3,16.1z"/>
<path fill="none" stroke="#FFFFFF" stroke-miterlimit="10" d="M200.2,63.8c-0.6-0.4-0.9-0.7-0.9-1c1.9-5.5,3.3-9.7,4.1-12.8
	c0.9-3.1,1.6-6.4,2.2-9.9c0.6-3.5,1.3-8.8,2.3-16c0.1-0.6,0.2-1,0.4-1.2c0.1-0.2,0.5-0.3,1.2-0.3c1.2,0,2.2,0.3,2.8,1
	c0.6,0.7,1,1.5,1,2.4c0,1-0.3,3-0.9,6c1.4-2.1,2.9-3.8,4.7-5.2c1.8-1.4,3.7-2.1,5.7-2.1c2.1,0,3.8,0.7,5.2,2.1c1.4,1.4,2,3.3,2,5.5
	c0,2.3-0.7,4.7-2,7.2c-1.3,2.5-3.2,4.7-5.6,6.4c-2.4,1.7-5,2.6-7.9,2.6c-1.3,0-2.4-0.2-3.2-0.5c-0.8-0.3-1.2-0.7-1.2-1.2
	c0-0.4,0.5-0.6,1.5-0.6c2.6,0,4.9-0.7,6.9-2.1c2-1.3,3.6-3,4.8-5c1.2-2,1.7-4,1.7-6c0-1.4-0.3-2.5-0.9-3.4c-0.6-0.9-1.5-1.3-2.7-1.3
	c-1.3,0-2.7,0.5-4.1,1.6c-1.4,1.1-2.7,2.4-3.8,3.9c-1.1,1.5-2,3-2.6,4.3c-0.7,2.5-1.7,6.1-2.8,10.9c-1.2,5.2-2.3,9.1-3.2,11.6
	c-0.9,2.5-1.9,3.7-3,3.7C201.3,64.3,200.8,64.1,200.2,63.8z"/>
<path fill="none" stroke="#FFFFFF" stroke-miterlimit="10" d="M239.9,46.8c-1-0.8-1.5-2-1.5-3.4c0-0.8,0.2-1.7,0.5-2.7
	c0.3-1,0.8-2.1,1.4-3.5c0.6-1.2,1-2.2,1.3-3c0.3-0.8,0.4-1.6,0.4-2.2c0-1.6-1.1-3-3.2-4.1c-0.9,2.1-1.8,4.3-3,6.5
	c-1.1,2.2-2.1,4-3,5.5l-1-1.9c2-3.5,3.7-7.4,5.2-11.6c-0.4-0.4-0.6-1-0.6-1.7c0-1.1,0.3-2.2,1-3.1c0.7-1,1.3-1.5,2-1.5
	c0.4,0,0.8,0.3,1.1,0.8c0.3,0.5,0.4,0.9,0.4,1.3c0,0.2-0.1,0.5-0.3,1.1c-0.2,0.6-0.3,1-0.4,1.2c0,0.3,0.2,0.6,0.5,0.9
	c0.3,0.3,0.9,0.7,1.7,1.2c1.5,1,2.7,1.9,3.5,2.8c0.8,0.9,1.2,2.1,1.2,3.7c0,0.9-0.2,1.9-0.5,2.8c-0.3,0.9-0.8,2.1-1.4,3.4
	c-0.9,1.9-1.4,3.2-1.4,4c0,1,0.5,1.5,1.6,1.5c1.3,0,2.7-0.5,4.2-1.5c1.5-1,2.9-2.3,4.2-3.7c1.3-1.5,2.2-2.8,2.8-4.1l1.5,1.2
	c-0.9,1.9-2,3.8-3.6,5.5c-1.5,1.8-3.3,3.2-5.2,4.3c-1.9,1.1-3.8,1.7-5.6,1.7C242.1,48.1,240.9,47.7,239.9,46.8z"/>
<path fill="none" stroke="#FFFFFF" stroke-miterlimit="10" d="M256.1,46.7c-1-1.1-1.5-2.4-1.5-4.1c0-1.7,0.5-4,1.4-6.9
	c1-2.9,2.2-5.5,3.6-7.7c1.5-2.2,3-3.3,4.4-3.3c0.6,0,1,0.2,1.4,0.5c0.4,0.3,0.5,0.8,0.5,1.4c0,0.4-0.2,0.9-0.5,1.6
	c-0.3,0.7-0.9,1.6-1.7,2.8c-1.4,2.3-2.4,4.3-3.2,6c-0.8,1.7-1.2,3.4-1.2,4.9c0,1.3,0.2,2.2,0.7,2.7c0.5,0.5,1.2,0.7,2.2,0.7
	c3.4,0,6.7-3.3,10-9.8l1,1c-1.5,3.8-3.4,6.7-5.7,8.8c-2.3,2.1-4.8,3.1-7.4,3.1C258.4,48.3,257,47.8,256.1,46.7z M265.5,18.8
	c-0.6-0.4-0.9-1-0.9-1.9c0-1,0.5-1.8,1.6-2.6c1.1-0.7,2.3-1.1,3.5-1.1c1.8,0,2.8,0.8,2.8,2.4c0,0.9-0.5,1.8-1.5,2.6
	c-1,0.8-2,1.2-3.2,1.2C266.9,19.5,266.1,19.3,265.5,18.8z"/>
<path fill="none" stroke="#FFFFFF" stroke-miterlimit="10" d="M272.3,46.4c-1-1.3-1.5-3-1.5-5.2c0-3.8,1.3-9,4-15.5
	c2.7-6.5,5.7-12.4,9-17.6c3.3-5.2,5.8-7.8,7.4-7.8c0.7,0,1.4,0.6,1.9,1.7c0.5,1.2,0.8,2.3,0.8,3.5c0,1.9-0.8,4.7-2.4,8.4
	c-1.6,3.7-3.7,7.4-6.4,11.3c-2.7,3.8-5.5,6.9-8.5,9.3c-0.5,2.6-0.7,4.8-0.7,6.4c0,2.9,0.9,4.4,2.8,4.4c1.4,0,2.8-0.8,4.3-2.4
	c1.5-1.6,2.9-3.7,4.1-6.1c0.8-4.2,2.4-9,4.8-14.3c2.4-5.4,4.9-10,7.6-13.9c2.6-3.9,4.6-5.8,6-5.8c0.8,0,1.4,0.6,2,1.8
	c0.5,1.2,0.8,2.4,0.8,3.6c0,1.8-0.7,4.4-2,7.6c-1.3,3.3-3.2,6.6-5.5,10c-2.4,3.4-5.1,6.3-8.1,8.7c-0.5,2.1-0.7,4.1-0.7,6.1
	c0,3.2,0.9,4.7,2.6,4.7c1.5,0,3.2-1,4.9-3c1.7-2,3.2-4.4,4.4-7.2l1.6,0.8c-3.8,8.2-8.1,12.3-12.8,12.3c-1.9,0-3.3-0.6-4.3-1.9
	c-1-1.2-1.5-2.9-1.5-5.1c-3.1,4.6-6.4,6.9-9.9,6.9C274.8,48.3,273.3,47.7,272.3,46.4z M284.2,22.6c2-3.2,3.7-6.3,5-9.2
	c1.3-2.9,1.9-5,1.9-6.4c0-0.4,0-0.7-0.1-0.8c-0.6,0-1.7,1.3-3.3,3.9c-1.7,2.6-3.4,5.8-5.3,9.7c-1.9,3.8-3.4,7.6-4.5,11.2
	C280,28.6,282.1,25.8,284.2,22.6z M299.5,23.4c1.8-2.8,3.2-5.5,4.2-8c1-2.5,1.5-4.5,1.5-5.8c0-0.4,0-0.6-0.1-0.8
	c-0.6,0-1.5,1.1-3,3.3c-1.4,2.2-3,5-4.6,8.4c-1.6,3.4-3,6.9-4.1,10.5C295.7,28.8,297.7,26.2,299.5,23.4z"/>
<path fill="none" stroke="#FFFFFF" stroke-miterlimit="10" d="M303,46.7c-1-1.1-1.5-2.4-1.5-4.1c0-1.7,0.5-4,1.4-6.9
	c1-2.9,2.2-5.5,3.6-7.7c1.5-2.2,3-3.3,4.4-3.3c0.6,0,1,0.2,1.4,0.5c0.4,0.3,0.5,0.8,0.5,1.4c0,0.4-0.2,0.9-0.5,1.6
	c-0.3,0.7-0.9,1.6-1.7,2.8c-1.4,2.3-2.4,4.3-3.2,6c-0.8,1.7-1.2,3.4-1.2,4.9c0,1.3,0.2,2.2,0.7,2.7c0.5,0.5,1.2,0.7,2.2,0.7
	c3.4,0,6.7-3.3,10-9.8l1,1c-1.5,3.8-3.4,6.7-5.7,8.8c-2.3,2.1-4.8,3.1-7.4,3.1C305.4,48.3,304,47.8,303,46.7z M312.5,18.8
	c-0.6-0.4-0.9-1-0.9-1.9c0-1,0.5-1.8,1.6-2.6c1.1-0.7,2.3-1.1,3.5-1.1c1.8,0,2.8,0.8,2.8,2.4c0,0.9-0.5,1.8-1.5,2.6
	c-1,0.8-2,1.2-3.2,1.2C313.9,19.5,313.1,19.3,312.5,18.8z"/>
<path fill="none" stroke="#FFFFFF" stroke-miterlimit="10" d="M317.5,47.9c-1-1-1.5-2.4-1.5-4.2c0-2.5,0.9-5.2,2.7-8.3
	c1.8-3.1,4.1-5.7,6.9-7.8c2.8-2.1,5.6-3.2,8.4-3.2c1.9,0,3.4,0.5,4.7,1.4c1.3,1,1.9,2.2,1.9,3.7c0,2-1.2,3-3.6,3.1
	c1.5,0.5,2.3,1.1,2.3,1.9c0,0.3-0.1,0.7-0.4,1.3c-0.3,0.6-0.6,1.2-1,1.9c-0.7,1.1-1.2,2.1-1.6,2.9s-0.6,1.6-0.6,2.3
	c0,0.6,0.2,1.2,0.5,1.6c0.3,0.4,0.8,0.7,1.4,0.7c1.2,0,2.7-0.8,4.6-2.5s3.7-4.2,5.4-7.5l1.2,1.2c-1.6,3.5-3.5,6.4-5.9,8.5
	c-2.3,2.2-4.7,3.2-7.1,3.2c-1.7,0-3-0.6-3.9-1.7c-0.9-1.1-1.4-2.4-1.4-3.9c-1.9,2.3-3.6,4-4.9,5.1c-1.4,1.1-2.8,1.6-4.4,1.6
	C319.8,49.4,318.5,48.9,317.5,47.9z M327.8,42.9c2-2.2,4.2-5,6.8-8.4l1.3-1.7c0.1-0.2,0.3-0.3,0.5-0.3l0.3,0.1
	c0.2-0.7,0.3-1.5,0.3-2.4c0-2.2-0.9-3.3-2.7-3.3c-1.9,0-3.8,1-5.9,3c-2,2-3.8,4.4-5.2,7.2c-1.4,2.8-2.1,5.1-2.1,7.1
	c0,0.7,0.1,1.2,0.4,1.6c0.2,0.3,0.6,0.5,1.1,0.5C324.1,46.2,325.9,45.1,327.8,42.9z"/>
<path fill="none" stroke="#FFFFFF" stroke-miterlimit="10" d="M362.7,48c0-1.6,0.9-4.1,2.6-7.5c1.7-3.4,4-7.3,6.8-11.7
	c-2.6-0.2-5.7-0.3-9.4-0.3c1-2.8,3.5-4.2,7.4-4.2c0.9,0,2.4,0.1,4.7,0.4c4.8-6.9,9.2-12.7,13.4-17.5c4.1-4.7,6.9-7.1,8.3-7.1
	c1.1,0,2.6,0.8,4.4,2.5c-0.9,0.6-2.1,3.3-3.7,8c-1.6,4.7-3.1,9.8-4.4,15.4c-1.3,5.6-1.9,10.1-1.9,13.5c0,1.7,0.2,3,0.5,3.8
	c0.4,0.8,0.9,1.2,1.7,1.2c1.1,0,2.3-0.8,3.8-2.3c1.5-1.6,3-4,4.7-7.2l1.2,1.2c-1.4,3.6-3.1,6.5-5.2,8.7c-2.1,2.2-4.4,3.3-6.7,3.3
	c-2,0-3.4-0.9-4.3-2.6s-1.3-4.2-1.3-7.4c0-2.1,0.3-4.7,0.8-7.9c-2.2-0.3-5.2-0.7-9.2-1.2c-4,7-7.7,14.6-11.3,22.8
	C363.7,51,362.7,49.6,362.7,48z M389.8,16.1c1.2-3.8,2.5-7.3,3.8-10.3c-1.9,1.5-4.1,4-6.6,7.4c-2.5,3.5-5.2,7.6-7.9,12.3l4.8,1
	c1.3,0.3,2.3,0.6,2.9,0.7C387.5,23.7,388.5,20,389.8,16.1z"/>
<path fill="none" stroke="#FFFFFF" stroke-miterlimit="10" d="M417.7,46.5c-0.9-0.8-1.3-1.9-1.3-3.2c0-0.6,0.1-1.2,0.3-1.9
	c0.2-0.7,0.4-1.4,0.6-2.2c0.6-2,0.9-3.4,0.9-4.4c0-0.9-0.2-1.5-0.6-1.9c-0.4-0.4-1-0.6-1.6-0.6c-2.3,0-4.5,1.4-6.8,4.3
	c-2.3,2.8-4.8,6.4-7.4,10.8c-1.8,0-3.2-0.6-4.2-1.9l0.6-1.6c2.5-6.1,3.8-10.6,3.8-13.6c0.3-0.4,0.8-0.7,1.5-1.1
	c0.6-0.3,1.3-0.5,1.9-0.5c0.7,0,1.3,0.2,1.7,0.5c0.4,0.3,0.6,0.8,0.6,1.4c0,1.2-0.4,3.1-1.1,5.7c1.9-2.6,3.9-4.6,6-6.3
	c2.1-1.6,4.1-2.4,6.1-2.4c1.7,0,3,0.6,4,1.8c0.9,1.2,1.4,2.6,1.4,4.2c0,0.9-0.1,1.8-0.4,2.7c-0.2,0.9-0.6,1.8-1.1,2.9
	c-0.7,1.8-1.1,3.1-1.1,4c0,0.6,0.1,1.1,0.4,1.4c0.3,0.3,0.7,0.4,1.1,0.4c1.4,0,2.9-1,4.6-2.9c1.6-1.9,3.1-4.2,4.4-6.9l1.1,0.9
	c-1.5,3.5-3.2,6.3-5.1,8.4s-4,3.1-6.4,3.1C419.8,47.7,418.6,47.3,417.7,46.5z"/>
<path fill="none" stroke="#FFFFFF" stroke-miterlimit="10" d="M430,47.9c-1-1-1.5-2.4-1.5-4.2c0-2.5,0.9-5.2,2.7-8.3
	c1.8-3.1,4.1-5.7,6.9-7.8c2.8-2.1,5.6-3.2,8.4-3.2c1.9,0,3.4,0.5,4.7,1.4c1.3,1,1.9,2.2,1.9,3.7c0,2-1.2,3-3.6,3.1
	c1.5,0.5,2.3,1.1,2.3,1.9c0,0.3-0.1,0.7-0.4,1.3c-0.3,0.6-0.6,1.2-1,1.9c-0.7,1.1-1.2,2.1-1.6,2.9s-0.6,1.6-0.6,2.3
	c0,0.6,0.2,1.2,0.5,1.6c0.3,0.4,0.8,0.7,1.4,0.7c1.2,0,2.7-0.8,4.6-2.5s3.7-4.2,5.4-7.5l1.2,1.2c-1.6,3.5-3.5,6.4-5.9,8.5
	c-2.3,2.2-4.7,3.2-7.1,3.2c-1.7,0-3-0.6-3.9-1.7c-0.9-1.1-1.4-2.4-1.4-3.9c-1.9,2.3-3.6,4-4.9,5.1c-1.4,1.1-2.8,1.6-4.4,1.6
	C432.2,49.4,431,48.9,430,47.9z M440.3,42.9c2-2.2,4.2-5,6.8-8.4l1.3-1.7c0.1-0.2,0.3-0.3,0.5-0.3l0.3,0.1c0.2-0.7,0.3-1.5,0.3-2.4
	c0-2.2-0.9-3.3-2.7-3.3c-1.9,0-3.8,1-5.9,3c-2,2-3.8,4.4-5.2,7.2c-1.4,2.8-2.1,5.1-2.1,7.1c0,0.7,0.1,1.2,0.4,1.6
	c0.2,0.3,0.6,0.5,1.1,0.5C436.6,46.2,438.3,45.1,440.3,42.9z"/>
<path fill="none" stroke="#FFFFFF" stroke-miterlimit="10" d="M476.3,46.5c-0.9-0.8-1.3-1.9-1.3-3.2c0-0.6,0.1-1.2,0.3-1.9
	c0.2-0.7,0.4-1.4,0.6-2.2c0.6-2,0.9-3.4,0.9-4.4c0-0.9-0.2-1.5-0.6-1.9c-0.4-0.4-1-0.6-1.6-0.6c-2.3,0-4.5,1.4-6.8,4.3
	c-2.3,2.8-4.8,6.4-7.4,10.8c-1.8,0-3.2-0.6-4.2-1.9l0.6-1.6c2.5-6.1,3.8-10.6,3.8-13.6c0.3-0.4,0.8-0.7,1.5-1.1
	c0.6-0.3,1.3-0.5,1.9-0.5c0.7,0,1.3,0.2,1.7,0.5c0.4,0.3,0.6,0.8,0.6,1.4c0,1.2-0.4,3.1-1.1,5.7c1.9-2.6,3.9-4.6,6-6.3
	c2.1-1.6,4.1-2.4,6.1-2.4c1.7,0,3,0.6,4,1.8c0.9,1.2,1.4,2.6,1.4,4.2c0,0.9-0.1,1.8-0.4,2.7c-0.2,0.9-0.6,1.8-1.1,2.9
	c-0.7,1.8-1.1,3.1-1.1,4c0,0.6,0.1,1.1,0.4,1.4c0.3,0.3,0.7,0.4,1.1,0.4c1.4,0,2.9-1,4.6-2.9c1.6-1.9,3.1-4.2,4.4-6.9l1.1,0.9
	c-1.5,3.5-3.2,6.3-5.1,8.4s-4,3.1-6.4,3.1C478.5,47.7,477.2,47.3,476.3,46.5z"/>
<path fill="none" stroke="#FFFFFF" stroke-miterlimit="10" d="M489.5,46.9c-1.1-1-1.7-2.4-1.7-4.3c0-2.4,0.9-5.2,2.8-8.3
	c1.8-3.1,4.2-5.8,7-8c2.8-2.2,5.6-3.3,8.4-3.3c2.1,0,3.1,0.7,3.1,2c0,0.7-0.3,1.2-0.8,1.5c-0.3-0.5-1.1-0.7-2.2-0.7
	c-2.2,0-4.2,0.9-6.2,2.8c-2,1.9-3.6,4.1-4.8,6.7c-1.2,2.6-1.8,4.7-1.8,6.4c0,0.9,0.2,1.5,0.5,2c0.3,0.5,0.9,0.7,1.5,0.7
	c1.2,0,2.6-0.7,4.2-2.1c1.6-1.4,3.2-3.4,4.9-5.9c1.7-2.6,3.2-5.5,4.5-9c3.3-8.5,6.1-15.2,8.4-19.9c2.3-4.8,4.3-7.1,6-7.1
	c0.5,0,0.9,0.2,1.2,0.5c0.4,0.4,0.5,0.8,0.5,1.4c0,0.7-0.3,1.8-1,3.3c-0.7,1.5-1.8,3.8-3.4,7c-3.1,6.3-5.6,11.8-7.4,16.5
	c-1.8,4.7-2.8,9-2.8,12.8c0,1,0.1,1.7,0.3,2.1c0.2,0.4,0.5,0.5,1,0.5c1.5,0,3.1-0.9,5-2.6c1.9-1.7,3.5-4,4.9-6.9l1.2,1
	c-1.4,3.5-3.4,6.4-5.8,8.6c-2.5,2.2-4.9,3.3-7.4,3.3c-1.7,0-2.9-0.5-3.6-1.5c-0.7-1-1.1-2.4-1.1-4c0-1,0.2-2.4,0.5-4.2
	c-2.1,3-4.2,5.5-6.5,7.3c-2.2,1.8-4.2,2.7-6.1,2.7C491.8,48.3,490.6,47.8,489.5,46.9z"/>
<path fill="none" stroke="#FFFFFF" stroke-miterlimit="10" d="M520.1,47.9c-1-1-1.5-2.4-1.5-4.2c0-2.5,0.9-5.2,2.7-8.3
	c1.8-3.1,4.1-5.7,6.9-7.8c2.8-2.1,5.6-3.2,8.4-3.2c1.9,0,3.4,0.5,4.7,1.4c1.3,1,1.9,2.2,1.9,3.7c0,2-1.2,3-3.6,3.1
	c1.5,0.5,2.3,1.1,2.3,1.9c0,0.3-0.1,0.7-0.4,1.3c-0.3,0.6-0.6,1.2-1,1.9c-0.7,1.1-1.2,2.1-1.6,2.9s-0.6,1.6-0.6,2.3
	c0,0.6,0.2,1.2,0.5,1.6c0.3,0.4,0.8,0.7,1.4,0.7c1.2,0,2.7-0.8,4.6-2.5s3.7-4.2,5.4-7.5l1.2,1.2c-1.6,3.5-3.5,6.4-5.9,8.5
	c-2.3,2.2-4.7,3.2-7.1,3.2c-1.7,0-3-0.6-3.9-1.7c-0.9-1.1-1.4-2.4-1.4-3.9c-1.9,2.3-3.6,4-4.9,5.1c-1.4,1.1-2.8,1.6-4.4,1.6
	C522.3,49.4,521.1,48.9,520.1,47.9z M530.4,42.9c2-2.2,4.2-5,6.8-8.4l1.3-1.7c0.1-0.2,0.3-0.3,0.5-0.3l0.3,0.1
	c0.2-0.7,0.3-1.5,0.3-2.4c0-2.2-0.9-3.3-2.7-3.3c-1.9,0-3.8,1-5.9,3c-2,2-3.8,4.4-5.2,7.2c-1.4,2.8-2.1,5.1-2.1,7.1
	c0,0.7,0.1,1.2,0.4,1.6c0.2,0.3,0.6,0.5,1.1,0.5C526.7,46.2,528.4,45.1,530.4,42.9z"/>
<path fill="none" stroke="#FFFFFF" stroke-miterlimit="10" d="M259.1,127.2c-2.1-1.1-3.7-2.5-4.8-4.3s-1.7-3.8-1.7-6
	c0-2.6,0.7-5,2.1-7.4c1.4-2.4,3.4-4.4,5.9-6.1c2.5-1.7,5.3-2.7,8.4-3.1c-1.5-1.3-2.6-2.8-3.4-4.5c-0.8-1.7-1.2-3.4-1.2-5.1
	c0-2.3,0.6-4.5,1.8-6.6c1.2-2.1,2.8-3.7,5-5c2.1-1.3,4.5-1.9,7.2-1.9c2.6,0,4.5,0.6,5.9,1.8c1.3,1.2,2,3,2,5.3
	c0,1.6-0.3,3.2-0.8,4.7c-0.5,1.6-1.2,2.9-2,3.9c-0.8,1-1.7,1.5-2.5,1.5c-1.1,0-2.1-0.9-3.1-2.6c3.7-3,5.5-5.8,5.5-8.4
	c0-1.2-0.4-2.2-1.1-2.9c-0.7-0.7-1.8-1.1-3.2-1.1c-2.8,0-5,1.1-6.5,3.4c-1.6,2.3-2.4,5.1-2.4,8.4c0,1.9,0.3,3.8,1,5.5
	c0.6,1.8,1.9,3.4,3.7,4.8c-3,0.5-5.6,1.5-7.9,3.1c-2.3,1.6-4.1,3.5-5.3,5.7c-1.3,2.2-1.9,4.4-1.9,6.6c0,2.3,0.7,4.4,2.1,6.1
	c1.4,1.8,3.5,2.7,6.2,2.7c2.9,0,5.8-0.9,8.5-2.7c2.7-1.8,5-4.2,6.8-7.1c1.8-2.9,2.9-6,3.3-9.2c-1,0-2.1,0.2-3.2,0.3
	c-1.1,0.2-2.4,0.4-3.9,0.7c-0.7,0.1-1.2,0.2-1.6,0.3c0-2,0.7-3.4,2-4.2c1.3-0.8,3-1.2,5.2-1.2c1.4,0,3.2,0.2,5.4,0.5
	c2.1,0.4,3.9,0.6,5.6,0.6c-0.6,1.3-1.2,2.1-1.7,2.4c-0.5,0.3-1.1,0.5-1.7,0.5l-3.6,0.1c-0.4,3.8-1.7,7.5-3.9,10.8
	c-2.2,3.4-5,6.1-8.4,8.2c-3.4,2.1-6.9,3.1-10.6,3.1C263.5,128.8,261.1,128.2,259.1,127.2z"/>
<path fill="none" stroke="#FFFFFF" stroke-miterlimit="10" d="M35.3,204.3c-1.3-0.9-2-2.3-2-4.2c0-0.4,0.2-0.6,0.7-0.6
	c0.3,0,0.8,0.1,1.8,0.3c0.9,0.2,2.4,0.3,4.5,0.3c4.9,0,9.3-0.7,13.2-2c3.9-1.3,7.1-3.1,9.3-5.3c2.3-2.2,3.4-4.5,3.4-6.9
	c0-3-1.6-5-4.7-6c-3.1-1-7.1-1.6-11.9-1.6l-4.7,0.1c-0.6,2.2-1.2,4.2-1.7,6c-0.5,1.8-0.9,3.4-1.3,4.8c-1.2,4.7-2.1,7.8-2.6,9.4
	c-1.3,0-2.4-0.3-3.3-1c-0.9-0.7-1.4-1.5-1.4-2.5c0-0.8,0.2-1.7,0.6-2.9l0.3-0.8l0.8-2.6c4.7-14.8,8.8-25.4,12.2-31.9
	c-2.1,0.5-4.3,1.3-6.6,2.6c-0.2,0.1-0.5,0.2-0.9,0.4c-0.4,0.2-0.7,0.3-0.8,0.3c-0.4,0-1-0.3-1.6-0.9c-0.6-0.6-1-1.1-1-1.6
	c2.9-1.2,5.6-2.1,7.9-2.7c2.3-0.6,5.1-0.9,8.2-0.9c4.2,0,8,0.7,11.2,2.2c3.2,1.5,4.9,4.2,4.9,8.3c0,3.3-1.3,5.9-3.9,7.8
	c-2.6,1.9-5.8,3.4-9.5,4.3c4.8,0.6,8.3,1.9,10.5,3.9c2.2,2,3.3,4.1,3.3,6.4c0,3.9-1.6,7.3-4.8,10.1c-3.2,2.9-7.1,5-11.6,6.5
	c-4.5,1.5-8.7,2.2-12.4,2.2C38.5,205.6,36.6,205.1,35.3,204.3z M59.3,172.6c3.7-1.9,5.5-4.8,5.5-8.8c0-5.1-4-7.7-12-7.7
	c-2.4,4.6-4.8,11.2-7.4,19.6C51,175.6,55.6,174.5,59.3,172.6z"/>
<path fill="none" stroke="#FFFFFF" stroke-miterlimit="10" d="M72.1,201.5c-1-1-1.5-2.4-1.5-4.2c0-2.5,0.9-5.2,2.7-8.3
	c1.8-3.1,4.1-5.7,6.9-7.8c2.8-2.1,5.6-3.2,8.4-3.2c1.9,0,3.4,0.5,4.7,1.4c1.3,1,1.9,2.2,1.9,3.7c0,2-1.2,3-3.6,3.1
	c1.5,0.5,2.3,1.1,2.3,1.9c0,0.3-0.1,0.7-0.4,1.3c-0.3,0.6-0.6,1.2-1,1.9c-0.7,1.1-1.2,2.1-1.6,2.9s-0.6,1.6-0.6,2.3
	c0,0.6,0.2,1.2,0.5,1.6c0.3,0.4,0.8,0.7,1.4,0.7c1.2,0,2.7-0.8,4.6-2.5s3.7-4.2,5.4-7.5l1.2,1.2c-1.6,3.5-3.5,6.4-5.9,8.5
	c-2.3,2.2-4.7,3.2-7.1,3.2c-1.7,0-3-0.6-3.9-1.7c-0.9-1.1-1.4-2.4-1.4-3.9c-1.9,2.3-3.6,4-4.9,5.1c-1.4,1.1-2.8,1.6-4.4,1.6
	C74.3,203,73.1,202.5,72.1,201.5z M82.4,196.5c2-2.2,4.2-5,6.8-8.4l1.3-1.7c0.1-0.2,0.3-0.3,0.5-0.3l0.3,0.1
	c0.2-0.7,0.3-1.5,0.3-2.4c0-2.2-0.9-3.3-2.7-3.3c-1.9,0-3.8,1-5.9,3c-2,2-3.8,4.4-5.2,7.2c-1.4,2.8-2.1,5.1-2.1,7.1
	c0,0.7,0.1,1.2,0.4,1.6c0.2,0.3,0.6,0.5,1.1,0.5C78.6,199.8,80.4,198.7,82.4,196.5z"/>
<path fill="none" stroke="#FFFFFF" stroke-miterlimit="10" d="M130.5,200.6c-0.9-0.9-1.3-2.1-1.3-3.6c0-0.7,0.1-1.4,0.3-2.3
	c0.2-0.8,0.4-1.6,0.7-2.3c0.6-1.7,0.8-3,0.8-3.8c0-1.3-0.5-1.9-1.5-1.9c-0.9,0-2,0.7-3.3,2c-1.2,1.4-2.9,3.6-5,6.7
	c-0.5,0.8-1.3,2.1-2.3,3.9l-1.2,2.2c-0.8,0-1.6-0.2-2.5-0.4c-0.9-0.3-1.3-0.7-1.3-1.2c0-0.4,0.4-1.8,1.3-4.1
	c0.9-2.2,1.5-4.2,2.1-5.8c0.5-1.7,0.8-3.1,0.8-4.2c0-1.3-0.4-1.9-1.3-1.9c-1.2,0-2.6,0.9-4.5,2.7c-1.8,1.8-3.6,4.1-5.4,6.9
	c-1.8,2.8-3.2,5.6-4.2,8.3c-0.8,0-1.7-0.2-2.7-0.6c-1-0.4-1.6-0.8-1.6-1.1l4.1-16.4c0.1-0.5,0.6-0.9,1.4-1.2
	c0.8-0.4,1.5-0.5,2.1-0.5s1.2,0.2,1.6,0.6c0.4,0.4,0.6,0.9,0.6,1.5c0,0.7-0.3,2.2-0.9,4.6c2-2.8,4.2-5.2,6.3-7
	c2.2-1.9,4.2-2.8,6.1-2.8c1.4,0,2.5,0.5,3.1,1.5c0.6,1,0.9,2.3,0.9,3.8c0,0.8-0.1,1.6-0.3,2.3c-0.2,0.7-0.4,1.7-0.8,2.8
	c3-4.4,6.1-6.6,9.3-6.6c1.5,0,2.7,0.5,3.4,1.4c0.7,0.9,1.1,2.1,1.1,3.4c0,1.4-0.4,3.3-1.3,5.8c0,0.2-0.2,0.7-0.5,1.7
	c-0.3,0.9-0.4,1.7-0.4,2.3c0,1.2,0.5,1.7,1.6,1.7c1.5,0,3-1,4.5-2.9c1.5-2,2.8-4.3,4.1-7l1.1,1.3c-1.2,3.2-2.8,6-4.8,8.3
	c-1.9,2.3-4.2,3.5-6.7,3.5C132.5,202,131.3,201.5,130.5,200.6z"/>
<path fill="none" stroke="#FFFFFF" stroke-miterlimit="10" d="M144.1,202.4c-1.3-1.5-1.9-3.6-1.9-6.3c0-4,1.3-9.4,3.8-16.1
	c2.6-6.7,5.5-12.7,8.8-17.9c3.3-5.2,5.9-7.8,7.7-7.8c0.8,0,1.4,0.4,1.9,1.3c0.4,0.9,0.7,1.9,0.7,3.1c0,2-0.7,4.7-2.1,8
	c-1.4,3.3-3.3,6.5-5.5,9.5c-2.3,3-4.7,5.3-7.2,6.7c-0.6,1.1-1.2,2.9-1.9,5.5c-0.7,2.5-1,5-1,7.3c0,1.9,0.3,3.4,0.8,4.5
	c0.5,1.1,1.4,1.7,2.5,1.7c1.1,0,2.3-0.5,3.6-1.5c1.3-1,2.3-2.3,3.1-3.7c-1.5-0.9-2.7-2-3.6-3.6c-0.8-1.5-1.2-3.1-1.2-4.9
	c0-2,0.6-3.7,1.7-5c1.1-1.3,2.5-2,4.2-2c1.4,0,2.6,0.5,3.5,1.6c0.9,1.1,1.3,2.7,1.3,4.8c0,2.6-0.6,5.3-1.9,8.1l1.2,0.1
	c2,0,3.6-0.7,4.9-2c1.3-1.4,2.4-3,3.4-5.1l1,1.3c-1.2,2.6-2.5,4.6-4.1,5.9c-1.6,1.3-3.6,1.9-6,1.9c-0.6,0-1,0-1.3-0.1
	c-1.3,2.1-2.9,3.8-4.7,5c-1.8,1.3-3.8,1.9-6,1.9C147.2,204.7,145.4,203.9,144.1,202.4z M156.6,172.8c1.6-2.5,2.9-5,4-7.4
	c1-2.4,1.6-4.1,1.6-5.1c-0.6,0.2-1.5,1.3-2.9,3.2c-1.4,1.9-2.8,4.3-4.2,7.1c-1.5,2.8-2.6,5.6-3.5,8.4
	C153.3,177.4,155,175.3,156.6,172.8z M159.7,189.2c0-1.5-0.2-2.6-0.5-3.3c-0.3-0.8-0.8-1.2-1.3-1.2c-0.6,0-1,0.4-1.4,1.2
	c-0.4,0.8-0.6,1.7-0.6,2.8c0,1.1,0.2,2.2,0.7,3.3c0.4,1.1,1.1,2,2.1,2.7C159.3,192.9,159.7,191.1,159.7,189.2z"/>
<path fill="none" stroke="#FFFFFF" stroke-miterlimit="10" d="M168.9,201.5c-1-1-1.5-2.4-1.5-4.2c0-2.5,0.9-5.2,2.7-8.3
	c1.8-3.1,4.1-5.7,6.9-7.8c2.8-2.1,5.6-3.2,8.4-3.2c1.9,0,3.4,0.5,4.7,1.4c1.3,1,1.9,2.2,1.9,3.7c0,2-1.2,3-3.6,3.1
	c1.5,0.5,2.3,1.1,2.3,1.9c0,0.3-0.1,0.7-0.4,1.3c-0.3,0.6-0.6,1.2-1,1.9c-0.7,1.1-1.2,2.1-1.6,2.9s-0.6,1.6-0.6,2.3
	c0,0.6,0.2,1.2,0.5,1.6c0.3,0.4,0.8,0.7,1.4,0.7c1.2,0,2.7-0.8,4.6-2.5s3.7-4.2,5.4-7.5l1.2,1.2c-1.6,3.5-3.5,6.4-5.9,8.5
	c-2.3,2.2-4.7,3.2-7.1,3.2c-1.7,0-3-0.6-3.9-1.7c-0.9-1.1-1.4-2.4-1.4-3.9c-1.9,2.3-3.6,4-4.9,5.1c-1.4,1.1-2.8,1.6-4.4,1.6
	C171.1,203,169.9,202.5,168.9,201.5z M179.2,196.5c2-2.2,4.2-5,6.8-8.4l1.3-1.7c0.1-0.2,0.3-0.3,0.5-0.3l0.3,0.1
	c0.2-0.7,0.3-1.5,0.3-2.4c0-2.2-0.9-3.3-2.7-3.3c-1.9,0-3.8,1-5.9,3c-2,2-3.8,4.4-5.2,7.2c-1.4,2.8-2.1,5.1-2.1,7.1
	c0,0.7,0.1,1.2,0.4,1.6c0.2,0.3,0.6,0.5,1.1,0.5C175.5,199.8,177.2,198.7,179.2,196.5z"/>
<path fill="none" stroke="#FFFFFF" stroke-miterlimit="10" d="M215.3,200.1c-0.9-0.8-1.3-1.9-1.3-3.2c0-0.6,0.1-1.2,0.3-1.9
	c0.2-0.7,0.4-1.4,0.6-2.2c0.6-2,0.9-3.4,0.9-4.4c0-0.9-0.2-1.5-0.6-1.9c-0.4-0.4-1-0.6-1.6-0.6c-2.3,0-4.5,1.4-6.8,4.3
	c-2.3,2.8-4.8,6.4-7.4,10.8c-1.8,0-3.2-0.6-4.2-1.9l0.6-1.6c2.5-6.1,3.8-10.6,3.8-13.6c0.3-0.4,0.8-0.7,1.5-1.1
	c0.6-0.3,1.3-0.5,1.9-0.5c0.7,0,1.3,0.2,1.7,0.5c0.4,0.3,0.6,0.8,0.6,1.4c0,1.2-0.4,3.1-1.1,5.7c1.9-2.6,3.9-4.6,6-6.3
	c2.1-1.6,4.1-2.4,6.1-2.4c1.7,0,3,0.6,4,1.8c0.9,1.2,1.4,2.6,1.4,4.2c0,0.9-0.1,1.8-0.4,2.7c-0.2,0.9-0.6,1.8-1.1,2.9
	c-0.7,1.8-1.1,3.1-1.1,4c0,0.6,0.1,1.1,0.4,1.4c0.3,0.3,0.7,0.4,1.1,0.4c1.4,0,2.9-1,4.6-2.9c1.6-1.9,3.1-4.2,4.4-6.9l1.1,0.9
	c-1.5,3.5-3.2,6.3-5.1,8.4s-4,3.1-6.4,3.1C217.4,201.3,216.2,200.9,215.3,200.1z"/>
<path fill="none" stroke="#FFFFFF" stroke-miterlimit="10" d="M227.9,216.9c-0.9-0.7-1.3-1.7-1.3-3c0-1.7,0.6-3.2,1.9-4.5
	c1.3-1.4,2.7-2.5,4.4-3.5s3.9-2.1,6.6-3.4c1.1-2.7,1.9-5.4,2.6-8c-3.5,4.4-6.7,6.5-9.7,6.5c-1.7,0-3.1-0.6-4.1-1.8s-1.5-2.8-1.5-4.7
	c0-2.9,0.9-5.6,2.8-8.1c1.9-2.6,4.2-4.6,7-6.2c2.8-1.6,5.4-2.3,7.9-2.3c1.3,0,2.3,0.2,3,0.7c0.7,0.5,1.1,1,1.1,1.7
	c0,0.4-0.1,0.8-0.4,1.2c-0.3,0.3-0.5,0.5-0.6,0.6c-0.4-0.4-0.9-0.7-1.3-0.9c-0.4-0.2-1-0.3-1.6-0.3c-2.1,0-4.1,0.8-6.1,2.3
	c-2,1.6-3.6,3.4-4.8,5.6c-1.2,2.2-1.8,4.2-1.8,5.9c0,0.9,0.2,1.5,0.5,2c0.4,0.4,0.8,0.7,1.4,0.7c1.2,0,2.6-0.7,4.3-2.2
	c1.7-1.5,3.4-3.4,5-5.8c0.5-2.4,1-4.1,1.7-5.2c0.6-1,1.6-1.6,2.8-1.6c0.6,0,1.2,0.1,1.9,0.3c0,1.1-0.5,3.3-1.4,6.7
	c-0.9,3.3-2.1,6.8-3.4,10.4c2.1-0.9,4.2-2.3,6.2-4.2c2-1.9,3.4-4.1,4.3-6.6l1.2,1.2c-0.9,2.7-2.6,5.1-5,7.3c-2.4,2.2-4.9,3.8-7.4,5
	c-2,4.7-4,8.5-6.1,11.2c-2.1,2.8-4.4,4.1-6.8,4.1C229.7,217.9,228.7,217.6,227.9,216.9z M234,212.6c1.4-1.6,2.8-4,4.2-7.2
	c-2.8,1.4-4.9,2.7-6.5,3.9c-1.5,1.2-2.3,2.5-2.3,3.9c0,0.6,0.1,1,0.4,1.3c0.2,0.3,0.5,0.5,0.9,0.5C231.5,215,232.7,214.2,234,212.6z
	"/>
<path fill="none" stroke="#FFFFFF" stroke-miterlimit="10" d="M277.9,204.3c-2.2-0.9-4-2.2-5.4-4c-1.4-1.8-2-3.9-2-6.4
	c0-3.2,1-5.4,2.9-6.8c2-1.4,4.3-2.1,6.9-2.1c-1.4,1.4-2.4,2.9-3.1,4.4c-0.7,1.5-1.1,3-1.1,4.5c0,2.3,0.9,4.3,2.7,5.9
	c1.8,1.6,4.2,2.4,7.4,2.4c2,0,3.9-0.3,5.7-1c1.8-0.7,3.3-1.7,4.4-3c1.1-1.3,1.7-2.9,1.7-4.7c0-1.6-0.4-3-1.3-4.2
	c-0.9-1.2-2-2.3-3.3-3.2c-1.3-0.9-3.1-1.9-5.3-3.1c-2.3-1.3-4.2-2.4-5.7-3.4c-1.5-1-2.7-2.2-3.6-3.6c-1-1.4-1.5-3.1-1.5-5
	c0-2.4,0.8-5,2.4-7.7c1.6-2.7,3.8-4.9,6.7-6.7c2.9-1.8,6.1-2.7,9.6-2.7c5.3,0,8,2.2,8,6.7c0,2.2-0.5,4.6-1.6,7.3
	c-1,2.7-2.2,5-3.6,7.1c-1.9-0.4-2.8-1.5-2.8-3.3c0-0.8,0.2-1.7,0.5-2.8c0.3-1,0.8-2.3,1.4-3.7c0.6-1.6,1-2.9,1.3-3.8
	c0.3-0.9,0.4-1.8,0.4-2.6c0-0.8-0.2-1.4-0.7-1.8c-0.5-0.4-1.4-0.6-2.7-0.6c-2.6,0-4.9,0.7-7,2.2c-2.1,1.5-3.8,3.2-5.1,5.3
	c-1.3,2.1-1.9,4-1.9,5.7c0,1.3,0.4,2.4,1.2,3.5c0.8,1,1.7,1.9,2.9,2.7c1.2,0.7,2.8,1.7,4.8,2.7c2.5,1.4,4.5,2.6,6,3.6
	c1.5,1,2.8,2.3,3.9,4c1.1,1.6,1.6,3.6,1.6,5.8c0,2.8-0.8,5.3-2.5,7.4c-1.7,2.1-3.9,3.7-6.6,4.8c-2.7,1.1-5.5,1.7-8.4,1.7
	C282.5,205.6,280.1,205.1,277.9,204.3z"/>
<path fill="none" stroke="#FFFFFF" stroke-miterlimit="10" d="M307.6,200.6c-1.5-1.5-2.2-3.3-2.2-5.6c0-2.5,0.8-5.2,2.5-8
	c1.7-2.9,3.8-5.3,6.4-7.2c2.6-1.9,5.2-2.9,7.7-2.9c1.3,0,2.4,0.3,3.3,1c0.9,0.7,1.3,1.8,1.3,3.3c0,2-0.8,4-2.4,5.8
	c-1.6,1.8-3.6,3.3-6.1,4.4c-2.5,1.2-5,1.9-7.6,2.2c-0.1,0.4-0.1,0.9-0.1,1.5c0,1.1,0.3,2.2,0.9,3.3c0.6,1.1,2,1.7,4,1.7
	c2.6,0,5.3-1.1,8-3.2c2.7-2.1,4.9-4.7,6.6-7.9l1.3,1c-1.7,3.8-4.1,6.9-7.3,9.3c-3.2,2.3-6.5,3.5-9.9,3.5
	C311.2,202.8,309.1,202.1,307.6,200.6z M316.4,189.4c1.9-1.1,3.5-2.4,4.8-3.9c1.3-1.6,2-3.1,2-4.6c0-0.5-0.1-0.8-0.3-1
	c-0.2-0.2-0.4-0.3-0.8-0.3c-1.2,0-2.6,0.6-4.1,1.8c-1.5,1.2-2.8,2.7-4.1,4.4c-1.2,1.8-2.2,3.6-2.8,5.4
	C312.7,191.1,314.5,190.5,316.4,189.4z"/>
<path fill="none" stroke="#FFFFFF" stroke-miterlimit="10" d="M329.5,201.3c-1.1-1.1-1.7-2.8-1.7-5c0-1.7,0.3-3.8,1-6.4
	c0.6-2.6,1.5-5.3,2.6-8.2c-1.1-0.2-1.9-0.4-2.2-0.6v-2c1,0.1,2,0.2,3.1,0.3c1.9-4.8,4-9,6.2-12.4c2.2-3.5,4-5.2,5.3-5.2
	c0.5,0,0.9,0.2,1.2,0.5c0.4,0.3,0.5,0.8,0.5,1.3c0,0.7-0.3,1.6-0.9,2.8c-0.6,1.2-1.6,2.9-2.9,5.2c-1.9,3.2-3.4,5.8-4.4,7.9
	c4.9,0,8.8-0.1,11.7-0.4v2.1c-5,0.5-9.3,0.8-12.9,0.8c-2.2,5.2-3.3,9.5-3.3,12.9c0,1.8,0.3,3,0.8,3.7c0.6,0.7,1.4,1.1,2.6,1.1
	c2.1,0,4.3-1,6.6-2.9c2.2-1.9,4.2-4.6,5.9-7.9l0.9,0.6c-1.8,4-4,7.2-6.8,9.7c-2.8,2.5-5.7,3.7-8.6,3.7
	C332.1,203,330.6,202.4,329.5,201.3z"/>
<path fill="none" stroke="#FFFFFF" stroke-miterlimit="10" d="M347.7,200.3c-1-1.1-1.5-2.4-1.5-4.1c0-1.7,0.5-4,1.4-6.9
	c1-2.9,2.2-5.5,3.6-7.7c1.5-2.2,3-3.3,4.4-3.3c0.6,0,1,0.2,1.4,0.5c0.4,0.3,0.5,0.8,0.5,1.4c0,0.4-0.2,0.9-0.5,1.6
	c-0.3,0.7-0.9,1.6-1.7,2.8c-1.4,2.3-2.4,4.3-3.2,6c-0.8,1.7-1.2,3.4-1.2,4.9c0,1.3,0.2,2.2,0.7,2.7c0.5,0.5,1.2,0.7,2.2,0.7
	c3.4,0,6.7-3.3,10-9.8l1,1c-1.5,3.8-3.4,6.7-5.7,8.8c-2.3,2.1-4.8,3.1-7.4,3.1C350,201.9,348.7,201.4,347.7,200.3z M357.1,172.4
	c-0.6-0.4-0.9-1-0.9-1.9c0-1,0.5-1.8,1.6-2.6c1.1-0.7,2.3-1.1,3.5-1.1c1.8,0,2.8,0.8,2.8,2.4c0,0.9-0.5,1.8-1.5,2.6
	c-1,0.8-2,1.2-3.2,1.2C358.5,173.1,357.7,172.9,357.1,172.4z"/>
<path fill="none" stroke="#FFFFFF" stroke-miterlimit="10" d="M362.3,216.9c-0.9-0.7-1.3-1.7-1.3-3.1c0-1.7,0.6-3.2,1.9-4.5
	c1.3-1.4,2.7-2.5,4.4-3.5c1.7-0.9,3.8-2,6.5-3.3c0.7-1.8,1.7-5.2,3.1-10c-1.5,2.2-3,3.9-4.5,5.1c-1.5,1.2-3,1.9-4.7,1.9
	c-1.4,0-2.7-0.4-3.8-1.3c-1.1-0.9-1.7-2.2-1.7-4c0-1.4,0.3-3.3,1-5.5c0.7-2.2,1.5-4.2,2.4-5.9c0.9-1.7,1.7-2.5,2.4-2.5
	c0.4,0,1.1,0.2,1.9,0.7c0.9,0.4,1.4,0.9,1.5,1.4c-0.8,1.1-1.7,3-2.7,5.6c-1,2.6-1.4,4.7-1.4,6.1c0,1.6,0.6,2.4,1.9,2.4
	c1.3,0,2.7-0.7,4.2-2.2c1.5-1.5,2.9-3.3,4.3-5.5c0.1-0.3,0.2-1,0.4-2.1c0.2-1.1,0.6-2.1,1.2-2.9c0.6-0.8,1.5-1.2,2.6-1.2
	c0.2,0,0.9,0.1,2,0.3c0,1.1-0.5,3.4-1.5,7s-2.1,7.1-3.4,10.5c2.1-0.9,4.1-2.2,5.9-3.9c1.9-1.7,3.3-4.1,4.4-6.9l1.1,0.9
	c-0.9,2.9-2.4,5.4-4.6,7.4c-2.2,2-4.7,3.6-7.6,4.9c-2,4.7-4,8.5-6.1,11.2c-2.1,2.8-4.3,4.1-6.7,4.1
	C364.2,217.9,363.2,217.6,362.3,216.9z M368.3,212.8c1.4-1.8,2.9-4.3,4.3-7.5c-2.5,1.2-4.6,2.6-6.4,4.1c-1.8,1.5-2.7,2.9-2.7,4.4
	c0,0.5,0.1,0.9,0.3,1.2c0.2,0.4,0.5,0.5,0.9,0.5C365.7,215.6,366.8,214.7,368.3,212.8z"/>
<path fill="none" stroke="#FFFFFF" stroke-miterlimit="10" d="M387.8,201.5c-1-1-1.5-2.4-1.5-4.2c0-2.5,0.9-5.2,2.7-8.3
	c1.8-3.1,4.1-5.7,6.9-7.8c2.8-2.1,5.6-3.2,8.4-3.2c1.9,0,3.4,0.5,4.7,1.4c1.3,1,1.9,2.2,1.9,3.7c0,2-1.2,3-3.6,3.1
	c1.5,0.5,2.3,1.1,2.3,1.9c0,0.3-0.1,0.7-0.4,1.3c-0.3,0.6-0.6,1.2-1,1.9c-0.7,1.1-1.2,2.1-1.6,2.9s-0.6,1.6-0.6,2.3
	c0,0.6,0.2,1.2,0.5,1.6c0.3,0.4,0.8,0.7,1.4,0.7c1.2,0,2.7-0.8,4.6-2.5s3.7-4.2,5.4-7.5l1.2,1.2c-1.6,3.5-3.5,6.4-5.9,8.5
	c-2.3,2.2-4.7,3.2-7.1,3.2c-1.7,0-3-0.6-3.9-1.7c-0.9-1.1-1.4-2.4-1.4-3.9c-1.9,2.3-3.6,4-4.9,5.1c-1.4,1.1-2.8,1.6-4.4,1.6
	C390,203,388.8,202.5,387.8,201.5z M398.1,196.5c2-2.2,4.2-5,6.8-8.4l1.3-1.7c0.1-0.2,0.3-0.3,0.5-0.3l0.3,0.1
	c0.2-0.7,0.3-1.5,0.3-2.4c0-2.2-0.9-3.3-2.7-3.3c-1.9,0-3.8,1-5.9,3c-2,2-3.8,4.4-5.2,7.2c-1.4,2.8-2.1,5.1-2.1,7.1
	c0,0.7,0.1,1.2,0.4,1.6c0.2,0.3,0.6,0.5,1.1,0.5C394.4,199.8,396.1,198.7,398.1,196.5z"/>
<path fill="none" stroke="#FFFFFF" stroke-miterlimit="10" d="M432.2,200.7c-0.6-1.1-0.9-2.7-1-4.7l0.1-1.5c0-0.9,0-1.8,0.1-2.8
	c-1.7,3-3.3,5.5-5,7.4c-1.7,1.9-3.4,2.8-5.1,2.8c-1.4,0-2.6-0.7-3.6-2c-1-1.3-1.4-2.9-1.4-4.7c0-1.6,0.3-3.5,1-5.8
	c0.7-2.3,1.5-4.3,2.4-6c0.9-1.7,1.7-2.6,2.4-2.6c0.4,0,0.9,0.2,1.6,0.6c0.7,0.4,1.1,0.8,1.3,1.3c-0.9,1.3-1.8,3.2-2.8,5.6
	c-0.9,2.5-1.4,4.6-1.4,6.4c0,0.9,0.1,1.7,0.4,2.5c0.3,0.8,0.8,1.2,1.6,1.2c2.2,0,5.2-3.8,9.2-11.5c0.3-1.8,0.6-3.1,0.9-3.9
	c0.3-0.8,0.5-1.3,0.8-1.6c0.3-0.2,0.6-0.4,1.1-0.4c0.8,0,1.4,0.2,1.9,0.5c0.4,0.3,0.7,0.8,0.7,1.4c0,0.1-0.1,0.5-0.3,1.2
	c-0.4,1.4-0.8,3.1-1,5.2c-0.3,2.1-0.4,4.2-0.4,6.4c0,1.2,0.1,2,0.2,2.5c0.1,0.5,0.5,0.8,0.9,0.8c1.1,0,2.6-1.2,4.4-3.7
	c1.8-2.5,3.5-5.3,5-8.5c0-3,0.3-5.1,0.9-6.3c0.6-1.2,1.5-1.8,2.6-1.8c0.9,0,1.6,0.3,2.1,0.9c0.5,0.6,0.7,1.2,0.7,1.8
	c0,0.4-0.1,0.9-0.4,1.3c-0.2,0.4-0.4,0.7-0.5,0.9c-0.9,1.7-1.3,3.6-1.3,5.7c0,3.2,0.9,4.7,2.8,4.7c0.8,0,1.6-0.4,2.4-1.1
	c0.8-0.7,1.6-2,2.5-3.8l1.2,1c-0.9,2-1.9,3.5-3,4.4c-1.2,0.9-2.4,1.4-3.6,1.4c-1.3,0-2.5-0.5-3.5-1.4c-1-1-1.8-2.3-2.4-3.9
	c-1.9,3.3-3.9,6.1-6,8.4c-2,2.2-4,3.4-5.9,3.4C433.6,202.4,432.7,201.9,432.2,200.7z"/>
<path fill="none" stroke="#FFFFFF" stroke-miterlimit="10" d="M456.6,201.5c-1-1-1.5-2.4-1.5-4.2c0-2.5,0.9-5.2,2.7-8.3
	c1.8-3.1,4.1-5.7,6.9-7.8c2.8-2.1,5.6-3.2,8.4-3.2c1.9,0,3.4,0.5,4.7,1.4c1.3,1,1.9,2.2,1.9,3.7c0,2-1.2,3-3.6,3.1
	c1.5,0.5,2.3,1.1,2.3,1.9c0,0.3-0.1,0.7-0.4,1.3c-0.3,0.6-0.6,1.2-1,1.9c-0.7,1.1-1.2,2.1-1.6,2.9s-0.6,1.6-0.6,2.3
	c0,0.6,0.2,1.2,0.5,1.6c0.3,0.4,0.8,0.7,1.4,0.7c1.2,0,2.7-0.8,4.6-2.5s3.7-4.2,5.4-7.5l1.2,1.2c-1.6,3.5-3.5,6.4-5.9,8.5
	c-2.3,2.2-4.7,3.2-7.1,3.2c-1.7,0-3-0.6-3.9-1.7c-0.9-1.1-1.4-2.4-1.4-3.9c-1.9,2.3-3.6,4-4.9,5.1c-1.4,1.1-2.8,1.6-4.4,1.6
	C458.8,203,457.6,202.5,456.6,201.5z M466.9,196.5c2-2.2,4.2-5,6.8-8.4l1.3-1.7c0.1-0.2,0.3-0.3,0.5-0.3l0.3,0.1
	c0.2-0.7,0.3-1.5,0.3-2.4c0-2.2-0.9-3.3-2.7-3.3c-1.9,0-3.8,1-5.9,3c-2,2-3.8,4.4-5.2,7.2c-1.4,2.8-2.1,5.1-2.1,7.1
	c0,0.7,0.1,1.2,0.4,1.6c0.2,0.3,0.6,0.5,1.1,0.5C463.2,199.8,464.9,198.7,466.9,196.5z"/>
<path fill="none" stroke="#FFFFFF" stroke-miterlimit="10" d="M502.9,200.1c-0.9-0.8-1.3-1.9-1.3-3.2c0-0.6,0.1-1.2,0.3-1.9
	c0.2-0.7,0.4-1.4,0.6-2.2c0.6-2,0.9-3.4,0.9-4.4c0-0.9-0.2-1.5-0.6-1.9c-0.4-0.4-1-0.6-1.6-0.6c-2.3,0-4.5,1.4-6.8,4.3
	c-2.3,2.8-4.8,6.4-7.4,10.8c-1.8,0-3.2-0.6-4.2-1.9l0.6-1.6c2.5-6.1,3.8-10.6,3.8-13.6c0.3-0.4,0.8-0.7,1.5-1.1
	c0.6-0.3,1.3-0.5,1.9-0.5c0.7,0,1.3,0.2,1.7,0.5c0.4,0.3,0.6,0.8,0.6,1.4c0,1.2-0.4,3.1-1.1,5.7c1.9-2.6,3.9-4.6,6-6.3
	c2.1-1.6,4.1-2.4,6.1-2.4c1.7,0,3,0.6,4,1.8c0.9,1.2,1.4,2.6,1.4,4.2c0,0.9-0.1,1.8-0.4,2.7c-0.2,0.9-0.6,1.8-1.1,2.9
	c-0.7,1.8-1.1,3.1-1.1,4c0,0.6,0.1,1.1,0.4,1.4c0.3,0.3,0.7,0.4,1.1,0.4c1.4,0,2.9-1,4.6-2.9c1.6-1.9,3.1-4.2,4.4-6.9l1.1,0.9
	c-1.5,3.5-3.2,6.3-5.1,8.4c-1.9,2-4,3.1-6.4,3.1C505.1,201.3,503.8,200.9,502.9,200.1z"/>
</svg>
