<svg xmlns="http://www.w3.org/2000/svg" viewBox="0 0 551.424 218.128">
  <path id="Path_1" data-name="Path 1" d="M-265.088,5.568a10.723,10.723,0,0,1-5.92-1.312A4.825,4.825,0,0,1-273.024.064q0-.64.7-.64a11.78,11.78,0,0,1,1.76.288A24.69,24.69,0,0,0-266.048,0a40.824,40.824,0,0,0,13.216-2.016A24.724,24.724,0,0,0-243.52-7.3q3.392-3.264,3.392-6.912,0-4.48-4.672-6.048a38.041,38.041,0,0,0-11.9-1.568l-4.736.064q-.96,3.264-1.7,6.016t-1.312,4.8q-1.856,6.976-2.56,9.408a5.505,5.505,0,0,1-3.328-1.024,3.013,3.013,0,0,1-1.408-2.5A9.188,9.188,0,0,1-271.1-8l.256-.768.832-2.56q7.1-22.144,12.16-31.936a24.977,24.977,0,0,0-6.592,2.56q-.32.128-.9.416a2.22,2.22,0,0,1-.832.288,2.643,2.643,0,0,1-1.6-.928,2.515,2.515,0,0,1-.96-1.568,63.18,63.18,0,0,1,7.9-2.688,33.325,33.325,0,0,1,8.224-.9,27.18,27.18,0,0,1,11.2,2.176q4.864,2.176,4.864,8.256a9.3,9.3,0,0,1-3.872,7.84,25.43,25.43,0,0,1-9.5,4.256q7.232.96,10.5,3.9t3.264,6.4a13.122,13.122,0,0,1-4.832,10.112,32.283,32.283,0,0,1-11.648,6.5A40.716,40.716,0,0,1-265.088,5.568Zm4.288-29.76a32.946,32.946,0,0,0,13.856-3.168,9.317,9.317,0,0,0,5.536-8.8q0-7.68-12.032-7.68A116.329,116.329,0,0,0-260.8-24.192ZM-229.184,1.92A4.188,4.188,0,0,1-232.7-.064a7.863,7.863,0,0,1-1.408-4.672,21.053,21.053,0,0,1,1.024-5.76,31.821,31.821,0,0,1,2.4-6.016q1.376-2.56,2.4-2.56a3.48,3.48,0,0,1,1.376.48,6.536,6.536,0,0,1,1.632,1.184,29.5,29.5,0,0,0-2.784,5.7,18.2,18.2,0,0,0-1.44,6.4,9.746,9.746,0,0,0,.352,2.528,1.532,1.532,0,0,0,1.568,1.312q2.368,0,5.664-5.28a82.2,82.2,0,0,0,5.664-10.72q3.84.64,3.84,2.176a16.616,16.616,0,0,1-.768,1.856q-1.344,3.136-2.3,5.824a14.222,14.222,0,0,0-.96,4.672q0,2.24,1.728,2.24a6.206,6.206,0,0,0,3.232-1.248,18.964,18.964,0,0,0,3.872-3.584,24.967,24.967,0,0,0,3.456-5.408l.96.768a24.268,24.268,0,0,1-3.648,6.208A18.909,18.909,0,0,1-211.68.352a9.617,9.617,0,0,1-4.96,1.568q-2.816,0-3.616-1.952a14.021,14.021,0,0,1-.8-5.216A33.13,33.13,0,0,1-225.152,0,5.691,5.691,0,0,1-229.184,1.92Zm44.928-.64A5.429,5.429,0,0,1-188.032.064a4.109,4.109,0,0,1-1.344-3.2,7.622,7.622,0,0,1,.288-1.92q.288-1.088.608-2.176a16.835,16.835,0,0,0,.9-4.352,2.5,2.5,0,0,0-.64-1.888,2.232,2.232,0,0,0-1.6-.608q-3.392,0-6.848,4.256A98.334,98.334,0,0,0-204.1.96,4.9,4.9,0,0,1-208.256-.9l.576-1.6q3.776-9.152,3.776-13.568a4.847,4.847,0,0,1,1.472-1.056,4.143,4.143,0,0,1,1.856-.48,2.427,2.427,0,0,1,1.664.512,1.787,1.787,0,0,1,.576,1.408,24.9,24.9,0,0,1-1.088,5.7,33.193,33.193,0,0,1,5.984-6.272,9.954,9.954,0,0,1,6.112-2.432,4.792,4.792,0,0,1,3.968,1.76,6.5,6.5,0,0,1,1.408,4.192,10.093,10.093,0,0,1-.352,2.688,21.281,21.281,0,0,1-1.056,2.88,12.1,12.1,0,0,0-1.088,4.032A1.923,1.923,0,0,0-184-1.728a1.481,1.481,0,0,0,1.088.448q2.112,0,4.576-2.912a34.443,34.443,0,0,0,4.448-6.88l1.088.9a30.561,30.561,0,0,1-5.088,8.384A8.4,8.4,0,0,1-184.256,1.28Zm11.9,16.64a4.672,4.672,0,0,1-3.072-1.056,3.716,3.716,0,0,1-1.28-3.04,6.554,6.554,0,0,1,1.888-4.544,18.474,18.474,0,0,1,4.384-3.488q2.5-1.44,6.592-3.36a59.846,59.846,0,0,0,2.56-8Q-166.464.96-171.008.96a5.03,5.03,0,0,1-4.064-1.792,7.123,7.123,0,0,1-1.5-4.736A13.518,13.518,0,0,1-173.76-13.7a21.771,21.771,0,0,1,6.976-6.176,16.253,16.253,0,0,1,7.936-2.336,5.476,5.476,0,0,1,3.04.7,2.046,2.046,0,0,1,1.056,1.728,1.872,1.872,0,0,1-.384,1.152,1.454,1.454,0,0,1-.64.576,3.9,3.9,0,0,0-1.28-.9,4.335,4.335,0,0,0-1.6-.256,9.688,9.688,0,0,0-6.08,2.336,18.642,18.642,0,0,0-4.768,5.632,12.5,12.5,0,0,0-1.824,5.92,3.04,3.04,0,0,0,.544,1.952,1.761,1.761,0,0,0,1.44.672q1.728,0,4.256-2.24a33.729,33.729,0,0,0,5.024-5.76A16.6,16.6,0,0,1-158.4-15.84a3.049,3.049,0,0,1,2.752-1.568,7.72,7.72,0,0,1,1.856.256A31.415,31.415,0,0,1-155.2-10.5Q-156.608-5.5-158.592-.128a20.463,20.463,0,0,0,6.176-4.192,16.385,16.385,0,0,0,4.256-6.56l1.152,1.152a17.668,17.668,0,0,1-5.024,7.3,29.32,29.32,0,0,1-7.392,4.992,50.213,50.213,0,0,1-6.112,11.232Q-168.7,17.92-172.352,17.92Zm-.256-2.944q1.28,0,3.328-2.368a30.407,30.407,0,0,0,4.224-7.168,36.894,36.894,0,0,0-6.464,3.872q-2.3,1.824-2.3,3.872a2.177,2.177,0,0,0,.352,1.312A1.042,1.042,0,0,0-172.608,14.976Zm26.432-11.968a5.14,5.14,0,0,1-3.744-1.472,5.556,5.556,0,0,1-1.5-4.16,16.744,16.744,0,0,1,2.72-8.32,26.764,26.764,0,0,1,6.944-7.808,13.959,13.959,0,0,1,8.448-3.2,7.531,7.531,0,0,1,4.7,1.44,4.437,4.437,0,0,1,1.888,3.68q0,2.944-3.648,3.072,2.3.7,2.3,1.92a3.439,3.439,0,0,1-.448,1.344q-.448.9-1.024,1.856a28.51,28.51,0,0,0-1.6,2.912,5.6,5.6,0,0,0-.576,2.336,2.734,2.734,0,0,0,.48,1.632,1.653,1.653,0,0,0,1.44.672q1.792,0,4.576-2.5a26.721,26.721,0,0,0,5.408-7.488l1.216,1.216a25.489,25.489,0,0,1-5.888,8.544q-3.52,3.232-7.1,3.232a4.777,4.777,0,0,1-3.936-1.7A5.976,5.976,0,0,1-136.9-3.648a35.063,35.063,0,0,1-4.928,5.056A6.952,6.952,0,0,1-146.176,3.008Zm1.344-3.264q2.24,0,5.216-3.232a96.639,96.639,0,0,0,6.752-8.416l1.28-1.728a.579.579,0,0,1,.512-.32l.256.064a7.95,7.95,0,0,0,.32-2.368q0-3.328-2.688-3.328-2.816,0-5.888,3.008a26.538,26.538,0,0,0-5.152,7.168,16.54,16.54,0,0,0-2.08,7.1,2.7,2.7,0,0,0,.352,1.568A1.3,1.3,0,0,0-144.832-.256Zm43.072,5.824Q-104.7,4.032-104.7,1.6t2.56-7.52A124.849,124.849,0,0,1-95.3-17.6q-3.84-.256-9.408-.256,1.536-4.16,7.424-4.16,1.28,0,4.736.384A197.259,197.259,0,0,1-79.168-39.1q6.208-7.1,8.256-7.1,1.664,0,4.352,2.5-1.28.96-3.744,7.968a138.369,138.369,0,0,0-4.352,15.36A64.237,64.237,0,0,0-76.544-6.912,10.055,10.055,0,0,0-76-3.1a1.79,1.79,0,0,0,1.7,1.248q1.6,0,3.776-2.336a34.264,34.264,0,0,0,4.736-7.2l1.152,1.216A25,25,0,0,1-69.888-1.44q-3.2,3.3-6.656,3.3A4.509,4.509,0,0,1-80.832-.7a16.173,16.173,0,0,1-1.344-7.36A48.186,48.186,0,0,1-81.344-16q-3.264-.512-9.152-1.216A246.364,246.364,0,0,0-101.76,5.568Zm21.056-24.7A114.808,114.808,0,0,1-77.7-30.272q1.856-5.76,3.776-10.3a39.194,39.194,0,0,0-6.592,7.424q-3.776,5.184-7.936,12.288l4.8,1.024Q-81.728-19.328-80.7-19.136Zm9.536,37.056a2.975,2.975,0,0,1-1.632-.576q-.864-.576-.928-1.024Q-70.912,8.128-69.6,3.488a90.718,90.718,0,0,0,2.176-9.856q.864-5.216,2.272-16.032a2.767,2.767,0,0,1,.352-1.184q.224-.288,1.184-.288a3.743,3.743,0,0,1,2.816.992,3.325,3.325,0,0,1,.96,2.4,38.38,38.38,0,0,1-.9,6.016,21.418,21.418,0,0,1,4.7-5.216A9.111,9.111,0,0,1-50.3-21.76a6.862,6.862,0,0,1,5.184,2.144,7.685,7.685,0,0,1,2.048,5.536,15.451,15.451,0,0,1-2.016,7.2,18.213,18.213,0,0,1-5.6,6.368,13.345,13.345,0,0,1-7.936,2.56,8.618,8.618,0,0,1-3.232-.512Q-63.1,1.024-63.1.384t1.536-.64a12.721,12.721,0,0,0,6.912-2.08,14.772,14.772,0,0,0,4.8-5.024,11.883,11.883,0,0,0,1.728-5.952,5.991,5.991,0,0,0-.9-3.392,3.015,3.015,0,0,0-2.688-1.344,6.76,6.76,0,0,0-4.1,1.632,18.959,18.959,0,0,0-3.776,3.936,25.123,25.123,0,0,0-2.56,4.288q-1.088,3.776-2.816,10.88A119.165,119.165,0,0,1-68.128,14.24Q-69.44,17.92-71.168,17.92ZM-29.312,1.664A5.734,5.734,0,0,1-33.152.416a4.179,4.179,0,0,1-1.472-3.36,8.449,8.449,0,0,1,.48-2.656A33.337,33.337,0,0,1-32.7-9.088q.832-1.792,1.28-3.04a6.651,6.651,0,0,0,.448-2.208q0-2.432-3.2-4.1-1.28,3.2-2.976,6.464t-3.04,5.5l-.96-1.856A74.164,74.164,0,0,0-35.968-19.9a2.335,2.335,0,0,1-.64-1.728,5.4,5.4,0,0,1,1.024-3.136Q-34.56-26.24-33.6-26.24a1.216,1.216,0,0,1,1.056.768,2.848,2.848,0,0,1,.416,1.28,4.835,4.835,0,0,1-.288,1.12l-.416,1.248a1.489,1.489,0,0,0,.512.864,12.639,12.639,0,0,0,1.664,1.184,18.247,18.247,0,0,1,3.488,2.848,5.269,5.269,0,0,1,1.248,3.68,8.68,8.68,0,0,1-.48,2.816A31.056,31.056,0,0,1-27.84-7.04a10.878,10.878,0,0,0-1.408,4.032q0,1.472,1.6,1.472a7.642,7.642,0,0,0,4.192-1.536A20.8,20.8,0,0,0-19.3-6.816a18.706,18.706,0,0,0,2.784-4.128l1.536,1.152a21.727,21.727,0,0,1-3.584,5.5A20.82,20.82,0,0,1-23.712,0,11.056,11.056,0,0,1-29.312,1.664ZM-5.248-26.944a3.905,3.905,0,0,1-2.272-.64,2.114,2.114,0,0,1-.928-1.856,3.164,3.164,0,0,1,1.632-2.592,6.053,6.053,0,0,1,3.488-1.12q2.752,0,2.752,2.368a3.478,3.478,0,0,1-1.472,2.592A4.85,4.85,0,0,1-5.248-26.944ZM-12.8,1.92A5.37,5.37,0,0,1-16.96.32a5.813,5.813,0,0,1-1.472-4.1,23.8,23.8,0,0,1,1.44-6.944,31.862,31.862,0,0,1,3.648-7.712Q-11.136-21.76-8.9-21.76a2,2,0,0,1,1.376.48A1.738,1.738,0,0,1-6.976-19.9a3.744,3.744,0,0,1-.512,1.568q-.512.992-1.664,2.848A60.5,60.5,0,0,0-12.384-9.5a11.813,11.813,0,0,0-1.184,4.9,3.835,3.835,0,0,0,.7,2.688,2.966,2.966,0,0,0,2.176.7q5.056,0,10.048-9.792L.32-9.984a23.165,23.165,0,0,1-5.7,8.768A10.881,10.881,0,0,1-12.8,1.92Zm16.512,0A5.216,5.216,0,0,1-.7,0,8.313,8.313,0,0,1-2.176-5.184q0-5.7,4-15.488a109.455,109.455,0,0,1,8.992-17.6q4.992-7.808,7.36-7.808,1.088,0,1.888,1.728a8.3,8.3,0,0,1,.8,3.52q0,2.88-2.368,8.416a63.2,63.2,0,0,1-6.368,11.264A43.291,43.291,0,0,1,3.584-11.84a38.438,38.438,0,0,0-.7,6.4q0,4.416,2.752,4.416,2.048,0,4.288-2.432a26.523,26.523,0,0,0,4.1-6.144,64.178,64.178,0,0,1,4.768-14.336,90.86,90.86,0,0,1,7.552-13.856q3.936-5.792,5.984-5.792,1.152,0,1.952,1.76a8.652,8.652,0,0,1,.8,3.616,22.168,22.168,0,0,1-1.984,7.648,51.876,51.876,0,0,1-5.536,10.016,40.068,40.068,0,0,1-8.1,8.7,27.729,27.729,0,0,0-.7,6.08q0,4.736,2.624,4.736,2.3,0,4.864-3.008A29.557,29.557,0,0,0,30.656-11.2l1.6.832Q26.5,1.92,19.456,1.92A5.147,5.147,0,0,1,15.168.064a8.2,8.2,0,0,1-1.536-5.056Q8.96,1.92,3.712,1.92ZM4.736-15.424a54.614,54.614,0,0,0,6.4-8.384,68.4,68.4,0,0,0,4.96-9.216q1.888-4.352,1.888-6.4a1.333,1.333,0,0,0-.128-.768q-.832,0-3.328,3.9a94.636,94.636,0,0,0-5.28,9.664A84.812,84.812,0,0,0,4.736-15.424Zm15.744.064a47.774,47.774,0,0,0,5.952-7.648,51.674,51.674,0,0,0,4.224-8.032,17,17,0,0,0,1.536-5.824,2.931,2.931,0,0,0-.064-.768q-.832,0-2.976,3.3a72.634,72.634,0,0,0-4.576,8.448A80.163,80.163,0,0,0,20.48-15.36ZM41.728-26.944a3.905,3.905,0,0,1-2.272-.64,2.114,2.114,0,0,1-.928-1.856,3.164,3.164,0,0,1,1.632-2.592,6.053,6.053,0,0,1,3.488-1.12q2.752,0,2.752,2.368a3.478,3.478,0,0,1-1.472,2.592A4.85,4.85,0,0,1,41.728-26.944ZM34.176,1.92a5.37,5.37,0,0,1-4.16-1.6,5.813,5.813,0,0,1-1.472-4.1,23.8,23.8,0,0,1,1.44-6.944,31.862,31.862,0,0,1,3.648-7.712Q35.84-21.76,38.08-21.76a2,2,0,0,1,1.376.48A1.738,1.738,0,0,1,40-19.9a3.744,3.744,0,0,1-.512,1.568q-.512.992-1.664,2.848A60.5,60.5,0,0,0,34.592-9.5a11.813,11.813,0,0,0-1.184,4.9,3.835,3.835,0,0,0,.7,2.688,2.966,2.966,0,0,0,2.176.7q5.056,0,10.048-9.792l.96,1.024a23.165,23.165,0,0,1-5.7,8.768A10.881,10.881,0,0,1,34.176,1.92Zm14.08,1.088a5.14,5.14,0,0,1-3.744-1.472,5.556,5.556,0,0,1-1.5-4.16,16.744,16.744,0,0,1,2.72-8.32,26.764,26.764,0,0,1,6.944-7.808,13.959,13.959,0,0,1,8.448-3.2,7.531,7.531,0,0,1,4.7,1.44,4.437,4.437,0,0,1,1.888,3.68q0,2.944-3.648,3.072,2.3.7,2.3,1.92A3.438,3.438,0,0,1,65.92-10.5q-.448.9-1.024,1.856a28.509,28.509,0,0,0-1.6,2.912,5.6,5.6,0,0,0-.576,2.336A2.734,2.734,0,0,0,63.2-1.76a1.653,1.653,0,0,0,1.44.672q1.792,0,4.576-2.5a26.721,26.721,0,0,0,5.408-7.488L75.84-9.856a25.489,25.489,0,0,1-5.888,8.544q-3.52,3.232-7.1,3.232a4.777,4.777,0,0,1-3.936-1.7,5.976,5.976,0,0,1-1.376-3.872,35.063,35.063,0,0,1-4.928,5.056A6.952,6.952,0,0,1,48.256,3.008ZM49.6-.256q2.24,0,5.216-3.232A96.637,96.637,0,0,0,61.568-11.9l1.28-1.728a.579.579,0,0,1,.512-.32l.256.064a7.95,7.95,0,0,0,.32-2.368q0-3.328-2.688-3.328-2.816,0-5.888,3.008a26.538,26.538,0,0,0-5.152,7.168,16.54,16.54,0,0,0-2.08,7.1A2.7,2.7,0,0,0,48.48-.736,1.3,1.3,0,0,0,49.6-.256ZM92.672,5.568Q89.728,4.032,89.728,1.6t2.56-7.52A124.849,124.849,0,0,1,99.136-17.6q-3.84-.256-9.408-.256,1.536-4.16,7.424-4.16,1.28,0,4.736.384A197.259,197.259,0,0,1,115.264-39.1q6.208-7.1,8.256-7.1,1.664,0,4.352,2.5-1.28.96-3.744,7.968a138.369,138.369,0,0,0-4.352,15.36,64.237,64.237,0,0,0-1.888,13.472,10.055,10.055,0,0,0,.544,3.808,1.79,1.79,0,0,0,1.7,1.248q1.6,0,3.776-2.336a34.264,34.264,0,0,0,4.736-7.2l1.152,1.216a25,25,0,0,1-5.248,8.736q-3.2,3.3-6.656,3.3A4.509,4.509,0,0,1,113.6-.7a16.173,16.173,0,0,1-1.344-7.36A48.186,48.186,0,0,1,113.088-16q-3.264-.512-9.152-1.216A246.364,246.364,0,0,0,92.672,5.568Zm21.056-24.7a114.808,114.808,0,0,1,3.008-11.136q1.856-5.76,3.776-10.3a39.194,39.194,0,0,0-6.592,7.424q-3.776,5.184-7.936,12.288l4.8,1.024Q112.7-19.328,113.728-19.136ZM148.416,1.28A5.429,5.429,0,0,1,144.64.064a4.109,4.109,0,0,1-1.344-3.2,7.622,7.622,0,0,1,.288-1.92q.288-1.088.608-2.176a16.835,16.835,0,0,0,.9-4.352,2.5,2.5,0,0,0-.64-1.888,2.232,2.232,0,0,0-1.6-.608q-3.392,0-6.848,4.256A98.334,98.334,0,0,0,128.576.96,4.9,4.9,0,0,1,124.416-.9l.576-1.6q3.776-9.152,3.776-13.568a4.847,4.847,0,0,1,1.472-1.056,4.143,4.143,0,0,1,1.856-.48,2.427,2.427,0,0,1,1.664.512,1.787,1.787,0,0,1,.576,1.408,24.9,24.9,0,0,1-1.088,5.7,33.193,33.193,0,0,1,5.984-6.272,9.954,9.954,0,0,1,6.112-2.432,4.792,4.792,0,0,1,3.968,1.76,6.5,6.5,0,0,1,1.408,4.192,10.093,10.093,0,0,1-.352,2.688,21.281,21.281,0,0,1-1.056,2.88,12.1,12.1,0,0,0-1.088,4.032,1.923,1.923,0,0,0,.448,1.408,1.481,1.481,0,0,0,1.088.448q2.112,0,4.576-2.912a34.443,34.443,0,0,0,4.448-6.88l1.088.9a30.561,30.561,0,0,1-5.088,8.384A8.4,8.4,0,0,1,148.416,1.28ZM160.7,3.008a5.14,5.14,0,0,1-3.744-1.472,5.556,5.556,0,0,1-1.5-4.16,16.744,16.744,0,0,1,2.72-8.32,26.764,26.764,0,0,1,6.944-7.808,13.959,13.959,0,0,1,8.448-3.2,7.531,7.531,0,0,1,4.7,1.44,4.437,4.437,0,0,1,1.888,3.68q0,2.944-3.648,3.072,2.3.7,2.3,1.92a3.439,3.439,0,0,1-.448,1.344q-.448.9-1.024,1.856a28.51,28.51,0,0,0-1.6,2.912,5.6,5.6,0,0,0-.576,2.336,2.734,2.734,0,0,0,.48,1.632,1.653,1.653,0,0,0,1.44.672q1.792,0,4.576-2.5a26.721,26.721,0,0,0,5.408-7.488l1.216,1.216A25.489,25.489,0,0,1,182.4-1.312q-3.52,3.232-7.1,3.232a4.777,4.777,0,0,1-3.936-1.7,5.976,5.976,0,0,1-1.376-3.872,35.063,35.063,0,0,1-4.928,5.056A6.952,6.952,0,0,1,160.7,3.008Zm1.344-3.264q2.24,0,5.216-3.232a96.639,96.639,0,0,0,6.752-8.416l1.28-1.728a.579.579,0,0,1,.512-.32l.256.064a7.95,7.95,0,0,0,.32-2.368q0-3.328-2.688-3.328-2.816,0-5.888,3.008a26.538,26.538,0,0,0-5.152,7.168,16.54,16.54,0,0,0-2.08,7.1,2.7,2.7,0,0,0,.352,1.568A1.3,1.3,0,0,0,162.048-.256ZM207.1,1.28A5.429,5.429,0,0,1,203.328.064a4.109,4.109,0,0,1-1.344-3.2,7.622,7.622,0,0,1,.288-1.92q.288-1.088.608-2.176a16.835,16.835,0,0,0,.9-4.352,2.5,2.5,0,0,0-.64-1.888,2.232,2.232,0,0,0-1.6-.608q-3.392,0-6.848,4.256A98.334,98.334,0,0,0,187.264.96,4.9,4.9,0,0,1,183.1-.9l.576-1.6q3.776-9.152,3.776-13.568a4.847,4.847,0,0,1,1.472-1.056,4.143,4.143,0,0,1,1.856-.48,2.427,2.427,0,0,1,1.664.512,1.787,1.787,0,0,1,.576,1.408,24.9,24.9,0,0,1-1.088,5.7,33.193,33.193,0,0,1,5.984-6.272,9.954,9.954,0,0,1,6.112-2.432A4.792,4.792,0,0,1,208-16.928a6.5,6.5,0,0,1,1.408,4.192,10.093,10.093,0,0,1-.352,2.688A21.281,21.281,0,0,1,208-7.168a12.1,12.1,0,0,0-1.088,4.032,1.923,1.923,0,0,0,.448,1.408,1.481,1.481,0,0,0,1.088.448q2.112,0,4.576-2.912a34.443,34.443,0,0,0,4.448-6.88l1.088.9a30.561,30.561,0,0,1-5.088,8.384A8.4,8.4,0,0,1,207.1,1.28Zm13.12.64A5.544,5.544,0,0,1,216.448.448a5.423,5.423,0,0,1-1.664-4.288q0-3.584,2.752-8.288a28.354,28.354,0,0,1,6.976-8.032,13.643,13.643,0,0,1,8.448-3.328q3.136,0,3.136,2.048a1.571,1.571,0,0,1-.768,1.472q-.512-.7-2.24-.7a8.875,8.875,0,0,0-6.208,2.848,22.856,22.856,0,0,0-4.768,6.688,15.694,15.694,0,0,0-1.824,6.4,3.327,3.327,0,0,0,.512,1.984,1.776,1.776,0,0,0,1.536.7q1.792,0,4.192-2.08a28.749,28.749,0,0,0,4.928-5.92,47.44,47.44,0,0,0,4.512-8.96q4.992-12.8,8.448-19.936t6.016-7.136a1.716,1.716,0,0,1,1.248.544,1.865,1.865,0,0,1,.544,1.376,9.4,9.4,0,0,1-.992,3.328q-.992,2.24-3.36,7.04-4.672,9.472-7.424,16.544A35.775,35.775,0,0,0,237.7-4.416a5.027,5.027,0,0,0,.288,2.08,1.028,1.028,0,0,0,.992.544q2.176,0,4.992-2.56a22.448,22.448,0,0,0,4.928-6.912l1.216,1.024a22.644,22.644,0,0,1-5.824,8.576q-3.712,3.328-7.36,3.328A4.085,4.085,0,0,1,233.344.128,6.83,6.83,0,0,1,232.256-3.9a23.912,23.912,0,0,1,.512-4.16A34.894,34.894,0,0,1,226.3-.8Q222.976,1.92,220.224,1.92Zm30.592,1.088a5.14,5.14,0,0,1-3.744-1.472,5.556,5.556,0,0,1-1.5-4.16,16.744,16.744,0,0,1,2.72-8.32,26.764,26.764,0,0,1,6.944-7.808,13.959,13.959,0,0,1,8.448-3.2,7.531,7.531,0,0,1,4.7,1.44,4.437,4.437,0,0,1,1.888,3.68q0,2.944-3.648,3.072,2.3.7,2.3,1.92a3.438,3.438,0,0,1-.448,1.344q-.448.9-1.024,1.856a28.513,28.513,0,0,0-1.6,2.912,5.6,5.6,0,0,0-.576,2.336,2.734,2.734,0,0,0,.48,1.632,1.653,1.653,0,0,0,1.44.672q1.792,0,4.576-2.5a26.722,26.722,0,0,0,5.408-7.488L278.4-9.856a25.49,25.49,0,0,1-5.888,8.544q-3.52,3.232-7.1,3.232a4.777,4.777,0,0,1-3.936-1.7A5.976,5.976,0,0,1,260.1-3.648a35.064,35.064,0,0,1-4.928,5.056A6.952,6.952,0,0,1,250.816,3.008ZM252.16-.256q2.24,0,5.216-3.232a96.642,96.642,0,0,0,6.752-8.416l1.28-1.728a.579.579,0,0,1,.512-.32l.256.064a7.95,7.95,0,0,0,.32-2.368q0-3.328-2.688-3.328-2.816,0-5.888,3.008a26.538,26.538,0,0,0-5.152,7.168,16.54,16.54,0,0,0-2.08,7.1,2.7,2.7,0,0,0,.352,1.568A1.3,1.3,0,0,0,252.16-.256ZM-6.816,82.568a15.356,15.356,0,0,1-7.136-1.6,12.2,12.2,0,0,1-4.832-4.32,10.936,10.936,0,0,1-1.728-5.984A14.431,14.431,0,0,1-18.4,63.24a18.692,18.692,0,0,1,5.856-6.08,19.749,19.749,0,0,1,8.352-3.136,13.851,13.851,0,0,1-3.424-4.512A11.9,11.9,0,0,1-8.8,44.424a13.1,13.1,0,0,1,1.76-6.56,13.414,13.414,0,0,1,4.96-4.992,13.962,13.962,0,0,1,7.232-1.888,8.448,8.448,0,0,1,5.856,1.824,6.756,6.756,0,0,1,2.016,5.28,14.719,14.719,0,0,1-.8,4.736A12.045,12.045,0,0,1,10.176,46.7a3.388,3.388,0,0,1-2.464,1.5q-1.6,0-3.072-2.624,5.5-4.48,5.5-8.384a3.978,3.978,0,0,0-1.088-2.944,4.338,4.338,0,0,0-3.2-1.088A7.513,7.513,0,0,0-.672,36.584,14.324,14.324,0,0,0-3.04,44.936a16.161,16.161,0,0,0,.96,5.536A11.012,11.012,0,0,0,1.632,55.3a18.589,18.589,0,0,0-7.9,3.1,17.694,17.694,0,0,0-5.312,5.7,13.11,13.11,0,0,0-1.888,6.56,9.768,9.768,0,0,0,2.08,6.144A7.4,7.4,0,0,0-5.152,79.5a15.176,15.176,0,0,0,8.512-2.72,23.2,23.2,0,0,0,6.848-7.1,22.077,22.077,0,0,0,3.328-9.184,29.009,29.009,0,0,0-3.2.32q-1.664.256-3.9.7-1.024.128-1.6.256a4.734,4.734,0,0,1,1.984-4.224,9.749,9.749,0,0,1,5.248-1.216,37.036,37.036,0,0,1,5.376.512,31.222,31.222,0,0,0,5.568.576,6.115,6.115,0,0,1-1.664,2.432,3.045,3.045,0,0,1-1.728.512l-3.584.064a23.941,23.941,0,0,1-3.9,10.848,26.6,26.6,0,0,1-8.352,8.192A19.837,19.837,0,0,1-6.816,82.568Zm-225.024,77a10.723,10.723,0,0,1-5.92-1.312,4.825,4.825,0,0,1-2.016-4.192q0-.64.7-.64a11.781,11.781,0,0,1,1.76.288A24.69,24.69,0,0,0-232.8,154a40.824,40.824,0,0,0,13.216-2.016,24.724,24.724,0,0,0,9.312-5.28q3.392-3.264,3.392-6.912,0-4.48-4.672-6.048a38.041,38.041,0,0,0-11.9-1.568l-4.736.064q-.96,3.264-1.7,6.016t-1.312,4.8q-1.856,6.976-2.56,9.408a5.506,5.506,0,0,1-3.328-1.024,3.013,3.013,0,0,1-1.408-2.5,9.188,9.188,0,0,1,.64-2.944l.256-.768.832-2.56q7.1-22.144,12.16-31.936a24.977,24.977,0,0,0-6.592,2.56q-.32.128-.9.416a2.22,2.22,0,0,1-.832.288,2.643,2.643,0,0,1-1.6-.928,2.515,2.515,0,0,1-.96-1.568,63.182,63.182,0,0,1,7.9-2.688,33.325,33.325,0,0,1,8.224-.9,27.18,27.18,0,0,1,11.2,2.176q4.864,2.176,4.864,8.256a9.3,9.3,0,0,1-3.872,7.84,25.43,25.43,0,0,1-9.5,4.256q7.232.96,10.5,3.9t3.264,6.4a13.122,13.122,0,0,1-4.832,10.112,32.283,32.283,0,0,1-11.648,6.5A40.716,40.716,0,0,1-231.84,159.568Zm4.288-29.76A32.946,32.946,0,0,0-213.7,126.64a9.317,9.317,0,0,0,5.536-8.8q0-7.68-12.032-7.68A116.331,116.331,0,0,0-227.552,129.808Zm30.336,27.2a5.14,5.14,0,0,1-3.744-1.472,5.556,5.556,0,0,1-1.5-4.16,16.744,16.744,0,0,1,2.72-8.32,26.764,26.764,0,0,1,6.944-7.808,13.959,13.959,0,0,1,8.448-3.2,7.531,7.531,0,0,1,4.7,1.44,4.437,4.437,0,0,1,1.888,3.68q0,2.944-3.648,3.072,2.3.7,2.3,1.92a3.439,3.439,0,0,1-.448,1.344q-.448.9-1.024,1.856a28.506,28.506,0,0,0-1.6,2.912,5.6,5.6,0,0,0-.576,2.336,2.734,2.734,0,0,0,.48,1.632,1.653,1.653,0,0,0,1.44.672q1.792,0,4.576-2.5a26.721,26.721,0,0,0,5.408-7.488l1.216,1.216a25.49,25.49,0,0,1-5.888,8.544q-3.52,3.232-7.1,3.232a4.777,4.777,0,0,1-3.936-1.7,5.976,5.976,0,0,1-1.376-3.872,35.063,35.063,0,0,1-4.928,5.056A6.952,6.952,0,0,1-197.216,157.008Zm1.344-3.264q2.24,0,5.216-3.232A96.637,96.637,0,0,0-183.9,142.1l1.28-1.728a.579.579,0,0,1,.512-.32l.256.064a7.951,7.951,0,0,0,.32-2.368q0-3.328-2.688-3.328-2.816,0-5.888,3.008a26.538,26.538,0,0,0-5.152,7.168,16.54,16.54,0,0,0-2.08,7.1,2.7,2.7,0,0,0,.352,1.568A1.3,1.3,0,0,0-195.872,153.744Zm56.96,2.24a4.679,4.679,0,0,1-3.648-1.408,5.124,5.124,0,0,1-1.28-3.584,10.182,10.182,0,0,1,.288-2.272,21.647,21.647,0,0,1,.672-2.336,14.473,14.473,0,0,0,.832-3.84q0-1.92-1.472-1.92-1.408,0-3.264,2.048a63.376,63.376,0,0,0-4.992,6.72q-.768,1.152-2.3,3.9l-1.216,2.176a7.929,7.929,0,0,1-2.5-.448q-1.344-.448-1.344-1.216a20.349,20.349,0,0,1,1.344-4.1q1.28-3.328,2.08-5.824a14.171,14.171,0,0,0,.8-4.16q0-1.92-1.344-1.92-1.728,0-4.48,2.72a40.227,40.227,0,0,0-5.44,6.912,41.28,41.28,0,0,0-4.16,8.288,7.393,7.393,0,0,1-2.72-.64q-1.568-.64-1.568-1.088l4.1-16.384q.192-.7,1.376-1.248a5.208,5.208,0,0,1,2.144-.544,2.187,2.187,0,0,1,1.568.576,2.016,2.016,0,0,1,.608,1.536,25.941,25.941,0,0,1-.9,4.608,40.312,40.312,0,0,1,6.336-7.008q3.264-2.784,6.144-2.784a3.338,3.338,0,0,1,3.1,1.536,7.313,7.313,0,0,1,.928,3.84,9.625,9.625,0,0,1-.256,2.272q-.256,1.056-.832,2.848,4.48-6.592,9.28-6.592a3.967,3.967,0,0,1,3.36,1.376,5.458,5.458,0,0,1,1.056,3.424,19.2,19.2,0,0,1-1.28,5.76q-.064.256-.48,1.664a8.518,8.518,0,0,0-.416,2.3q0,1.728,1.6,1.728,2.3,0,4.512-2.944a40.063,40.063,0,0,0,4.128-7.04l1.088,1.344a28.812,28.812,0,0,1-4.768,8.256A8.585,8.585,0,0,1-138.912,155.984Zm15.488,2.688a6.852,6.852,0,0,1-5.5-2.24,9.343,9.343,0,0,1-1.92-6.272q0-6.016,3.84-16.1a101.537,101.537,0,0,1,8.768-17.92q4.928-7.84,7.744-7.84a2.072,2.072,0,0,1,1.888,1.344,7.405,7.405,0,0,1,.736,3.072,21.829,21.829,0,0,1-2.112,8.032,45.2,45.2,0,0,1-5.536,9.5,24.734,24.734,0,0,1-7.2,6.72,26.742,26.742,0,0,0-1.888,5.472,29.046,29.046,0,0,0-.992,7.328,10.686,10.686,0,0,0,.8,4.512,2.646,2.646,0,0,0,2.528,1.7,5.965,5.965,0,0,0,3.584-1.5,11.906,11.906,0,0,0,3.136-3.744,8.893,8.893,0,0,1-3.552-3.552,10.009,10.009,0,0,1-1.248-4.9,7.474,7.474,0,0,1,1.664-5.024,5.244,5.244,0,0,1,4.16-1.952,4.162,4.162,0,0,1,3.456,1.632,7.606,7.606,0,0,1,1.28,4.768,19.191,19.191,0,0,1-1.92,8.064l1.152.064a6.379,6.379,0,0,0,4.864-2.048,20.51,20.51,0,0,0,3.392-5.056l.96,1.344a15.15,15.15,0,0,1-4.064,5.856,9.217,9.217,0,0,1-5.984,1.888,10.339,10.339,0,0,1-1.344-.064,17.39,17.39,0,0,1-4.672,5.024A10.223,10.223,0,0,1-123.424,158.672Zm1.92-25.728a30.046,30.046,0,0,0,5.056-6.176,52.4,52.4,0,0,0,3.968-7.36,17.028,17.028,0,0,0,1.6-5.088q-.832.32-2.88,3.2a60.031,60.031,0,0,0-4.224,7.072A54.529,54.529,0,0,0-121.5,132.944Zm7.04,15.68a13.4,13.4,0,0,0,1.152-5.44,8.488,8.488,0,0,0-.512-3.328q-.512-1.152-1.344-1.152t-1.44,1.152a5.823,5.823,0,0,0-.608,2.752,8.92,8.92,0,0,0,.672,3.3A6.028,6.028,0,0,0-114.464,148.624Zm14.08,8.384a5.14,5.14,0,0,1-3.744-1.472,5.556,5.556,0,0,1-1.5-4.16,16.744,16.744,0,0,1,2.72-8.32,26.764,26.764,0,0,1,6.944-7.808,13.959,13.959,0,0,1,8.448-3.2,7.531,7.531,0,0,1,4.7,1.44,4.437,4.437,0,0,1,1.888,3.68q0,2.944-3.648,3.072,2.3.7,2.3,1.92a3.438,3.438,0,0,1-.448,1.344q-.448.9-1.024,1.856a28.506,28.506,0,0,0-1.6,2.912,5.6,5.6,0,0,0-.576,2.336,2.734,2.734,0,0,0,.48,1.632,1.653,1.653,0,0,0,1.44.672q1.792,0,4.576-2.5a26.721,26.721,0,0,0,5.408-7.488l1.216,1.216a25.49,25.49,0,0,1-5.888,8.544q-3.52,3.232-7.1,3.232a4.777,4.777,0,0,1-3.936-1.7,5.976,5.976,0,0,1-1.376-3.872,35.062,35.062,0,0,1-4.928,5.056A6.952,6.952,0,0,1-100.384,157.008Zm1.344-3.264q2.24,0,5.216-3.232a96.634,96.634,0,0,0,6.752-8.416l1.28-1.728a.579.579,0,0,1,.512-.32l.256.064a7.95,7.95,0,0,0,.32-2.368q0-3.328-2.688-3.328-2.816,0-5.888,3.008a26.538,26.538,0,0,0-5.152,7.168,16.54,16.54,0,0,0-2.08,7.1,2.7,2.7,0,0,0,.352,1.568A1.3,1.3,0,0,0-99.04,153.744Zm45.056,1.536a5.429,5.429,0,0,1-3.776-1.216,4.109,4.109,0,0,1-1.344-3.2,7.622,7.622,0,0,1,.288-1.92q.288-1.088.608-2.176a16.835,16.835,0,0,0,.9-4.352,2.5,2.5,0,0,0-.64-1.888,2.232,2.232,0,0,0-1.6-.608q-3.392,0-6.848,4.256a98.334,98.334,0,0,0-7.424,10.784,4.9,4.9,0,0,1-4.16-1.856l.576-1.6q3.776-9.152,3.776-13.568a4.846,4.846,0,0,1,1.472-1.056,4.142,4.142,0,0,1,1.856-.48,2.427,2.427,0,0,1,1.664.512,1.787,1.787,0,0,1,.576,1.408,24.905,24.905,0,0,1-1.088,5.7,33.192,33.192,0,0,1,5.984-6.272,9.954,9.954,0,0,1,6.112-2.432,4.792,4.792,0,0,1,3.968,1.76,6.5,6.5,0,0,1,1.408,4.192,10.093,10.093,0,0,1-.352,2.688,21.281,21.281,0,0,1-1.056,2.88,12.1,12.1,0,0,0-1.088,4.032,1.923,1.923,0,0,0,.448,1.408,1.481,1.481,0,0,0,1.088.448q2.112,0,4.576-2.912a34.442,34.442,0,0,0,4.448-6.88l1.088.9a30.561,30.561,0,0,1-5.088,8.384A8.4,8.4,0,0,1-53.984,155.28Zm11.9,16.64a4.672,4.672,0,0,1-3.072-1.056,3.716,3.716,0,0,1-1.28-3.04,6.554,6.554,0,0,1,1.888-4.544,18.474,18.474,0,0,1,4.384-3.488q2.5-1.44,6.592-3.36a59.847,59.847,0,0,0,2.56-8q-5.184,6.528-9.728,6.528a5.03,5.03,0,0,1-4.064-1.792,7.123,7.123,0,0,1-1.5-4.736,13.518,13.518,0,0,1,2.816-8.128,21.771,21.771,0,0,1,6.976-6.176,16.253,16.253,0,0,1,7.936-2.336,5.476,5.476,0,0,1,3.04.7,2.046,2.046,0,0,1,1.056,1.728,1.872,1.872,0,0,1-.384,1.152,1.454,1.454,0,0,1-.64.576,3.9,3.9,0,0,0-1.28-.9,4.335,4.335,0,0,0-1.6-.256,9.688,9.688,0,0,0-6.08,2.336,18.642,18.642,0,0,0-4.768,5.632,12.5,12.5,0,0,0-1.824,5.92,3.04,3.04,0,0,0,.544,1.952,1.761,1.761,0,0,0,1.44.672q1.728,0,4.256-2.24a33.729,33.729,0,0,0,5.024-5.76,16.6,16.6,0,0,1,1.664-5.152,3.049,3.049,0,0,1,2.752-1.568,7.72,7.72,0,0,1,1.856.256,31.415,31.415,0,0,1-1.408,6.656q-1.408,4.992-3.392,10.368a20.463,20.463,0,0,0,6.176-4.192,16.385,16.385,0,0,0,4.256-6.56l1.152,1.152a17.667,17.667,0,0,1-5.024,7.3,29.32,29.32,0,0,1-7.392,4.992,50.213,50.213,0,0,1-6.112,11.232Q-38.432,171.92-42.08,171.92Zm-.256-2.944q1.28,0,3.328-2.368a30.408,30.408,0,0,0,4.224-7.168,36.9,36.9,0,0,0-6.464,3.872q-2.3,1.824-2.3,3.872A2.177,2.177,0,0,0-43.2,168.5,1.042,1.042,0,0,0-42.336,168.976Zm54.4-9.408a19.545,19.545,0,0,1-7.232-1.312,12.349,12.349,0,0,1-5.376-3.968,10.219,10.219,0,0,1-2.048-6.432q0-4.736,2.944-6.816a11.67,11.67,0,0,1,6.912-2.08,15.893,15.893,0,0,0-3.1,4.416,10.717,10.717,0,0,0-1.056,4.48,7.694,7.694,0,0,0,2.656,5.888q2.656,2.432,7.392,2.432a16.586,16.586,0,0,0,5.728-.992,10.332,10.332,0,0,0,4.416-2.976,7.3,7.3,0,0,0,.352-8.9,13.44,13.44,0,0,0-3.3-3.2,58.652,58.652,0,0,0-5.28-3.136q-3.52-1.92-5.7-3.392a13.681,13.681,0,0,1-3.648-3.616,8.549,8.549,0,0,1-1.472-4.96,15.228,15.228,0,0,1,2.368-7.68,19.645,19.645,0,0,1,6.656-6.72,17.7,17.7,0,0,1,9.6-2.688q8,0,8,6.72a20.12,20.12,0,0,1-1.568,7.264,39.76,39.76,0,0,1-3.552,7.072,3.083,3.083,0,0,1-2.816-3.264,9.654,9.654,0,0,1,.48-2.784q.48-1.568,1.376-3.744.9-2.432,1.344-3.84a8.519,8.519,0,0,0,.448-2.56,2.229,2.229,0,0,0-.736-1.824,4.3,4.3,0,0,0-2.656-.608,12.254,12.254,0,0,0-7.04,2.176,17.116,17.116,0,0,0-5.088,5.28,11.2,11.2,0,0,0-1.888,5.728,5.616,5.616,0,0,0,1.152,3.456,10.916,10.916,0,0,0,2.912,2.656q1.76,1.12,4.768,2.72,3.776,2.048,6.048,3.584a14.416,14.416,0,0,1,3.9,3.968,10.206,10.206,0,0,1,1.632,5.824,11.375,11.375,0,0,1-2.528,7.36,16.13,16.13,0,0,1-6.592,4.8A22.008,22.008,0,0,1,12.064,159.568Zm28.8-2.752a8.626,8.626,0,0,1-6.272-2.176,7.426,7.426,0,0,1-2.24-5.568,16.235,16.235,0,0,1,2.5-8.032,23.71,23.71,0,0,1,6.4-7.232,12.874,12.874,0,0,1,7.68-2.912,5.45,5.45,0,0,1,3.328.992,3.827,3.827,0,0,1,1.344,3.3,8.694,8.694,0,0,1-2.368,5.792,17.907,17.907,0,0,1-6.112,4.448,24.952,24.952,0,0,1-7.648,2.176,7.562,7.562,0,0,0-.128,1.472,6.78,6.78,0,0,0,.928,3.328q.928,1.664,4,1.664A13.033,13.033,0,0,0,50.24,150.9a24.166,24.166,0,0,0,6.56-7.9l1.28,1.024a22.783,22.783,0,0,1-7.328,9.28A16.444,16.444,0,0,1,40.864,156.816Zm-2.688-11.584a13.911,13.911,0,0,0,5.152-1.856,17.532,17.532,0,0,0,4.832-3.936,7.152,7.152,0,0,0,1.984-4.576,1.363,1.363,0,0,0-.256-.96,1.143,1.143,0,0,0-.832-.256,6.749,6.749,0,0,0-4.064,1.76,20.572,20.572,0,0,0-4.064,4.448A21.421,21.421,0,0,0,38.176,145.232Zm22.912,11.712a6.16,6.16,0,0,1-4.608-1.7,6.9,6.9,0,0,1-1.664-5.024,27.581,27.581,0,0,1,.96-6.368,79.135,79.135,0,0,1,2.56-8.224,12.143,12.143,0,0,1-2.24-.576v-1.984q1.536.192,3.072.32a74.747,74.747,0,0,1,6.176-12.416q3.3-5.184,5.344-5.184a1.8,1.8,0,0,1,1.792,1.856,6.512,6.512,0,0,1-.9,2.752q-.9,1.728-2.944,5.248-2.816,4.736-4.416,7.936,7.36,0,11.712-.448v2.112q-7.552.768-12.864.768-3.328,7.872-3.328,12.864a6.267,6.267,0,0,0,.832,3.712A3.093,3.093,0,0,0,63.2,153.68q3.2,0,6.56-2.912a25.194,25.194,0,0,0,5.856-7.9l.9.64a28.011,28.011,0,0,1-6.784,9.7Q65.568,156.944,61.088,156.944Zm25.28-29.888a3.905,3.905,0,0,1-2.272-.64,2.114,2.114,0,0,1-.928-1.856,3.164,3.164,0,0,1,1.632-2.592,6.053,6.053,0,0,1,3.488-1.12q2.752,0,2.752,2.368a3.478,3.478,0,0,1-1.472,2.592A4.85,4.85,0,0,1,86.368,127.056ZM78.816,155.92a5.37,5.37,0,0,1-4.16-1.6,5.813,5.813,0,0,1-1.472-4.1,23.8,23.8,0,0,1,1.44-6.944,31.862,31.862,0,0,1,3.648-7.712q2.208-3.328,4.448-3.328a2,2,0,0,1,1.376.48,1.738,1.738,0,0,1,.544,1.376,3.744,3.744,0,0,1-.512,1.568q-.512.992-1.664,2.848a60.494,60.494,0,0,0-3.232,5.984,11.813,11.813,0,0,0-1.184,4.9,3.835,3.835,0,0,0,.7,2.688,2.966,2.966,0,0,0,2.176.7q5.056,0,10.048-9.792l.96,1.024a23.165,23.165,0,0,1-5.7,8.768A10.881,10.881,0,0,1,78.816,155.92Zm13.568,16a4.672,4.672,0,0,1-3.072-1.056,3.792,3.792,0,0,1-1.28-3.1,6.554,6.554,0,0,1,1.888-4.544A17.835,17.835,0,0,1,94.3,159.76q2.5-1.408,6.464-3.264,1.088-2.752,3.072-9.984a27.038,27.038,0,0,1-4.512,5.12,7.2,7.2,0,0,1-4.7,1.856,6.031,6.031,0,0,1-3.776-1.28,4.765,4.765,0,0,1-1.664-4.032,19.835,19.835,0,0,1,1.024-5.536,30.184,30.184,0,0,1,2.432-5.888q1.408-2.528,2.432-2.528a4.749,4.749,0,0,1,1.92.672,2.9,2.9,0,0,1,1.536,1.44,24.329,24.329,0,0,0-2.656,5.568,19.147,19.147,0,0,0-1.44,6.144q0,2.368,1.856,2.368,1.92,0,4.16-2.24a31.2,31.2,0,0,0,4.288-5.5q.128-.448.384-2.112a6.644,6.644,0,0,1,1.152-2.912,2.962,2.962,0,0,1,2.56-1.248q.256,0,2.048.256a42.831,42.831,0,0,1-1.5,6.976q-1.44,5.376-3.36,10.5a19.255,19.255,0,0,0,5.92-3.9,17.911,17.911,0,0,0,4.384-6.912l1.088.9a16.257,16.257,0,0,1-4.64,7.424,28.33,28.33,0,0,1-7.584,4.928,53.9,53.9,0,0,1-6.112,11.232Q95.968,171.92,92.384,171.92Zm-.64-2.368q1.344,0,3.52-2.72a34.281,34.281,0,0,0,4.288-7.52,32.1,32.1,0,0,0-6.368,4.1q-2.656,2.24-2.656,4.352a2.627,2.627,0,0,0,.288,1.248A.975.975,0,0,0,91.744,169.552ZM118.5,157.008a5.14,5.14,0,0,1-3.744-1.472,5.556,5.556,0,0,1-1.5-4.16,16.744,16.744,0,0,1,2.72-8.32,26.764,26.764,0,0,1,6.944-7.808,13.959,13.959,0,0,1,8.448-3.2,7.531,7.531,0,0,1,4.7,1.44,4.437,4.437,0,0,1,1.888,3.68q0,2.944-3.648,3.072,2.3.7,2.3,1.92a3.439,3.439,0,0,1-.448,1.344q-.448.9-1.024,1.856a28.506,28.506,0,0,0-1.6,2.912,5.6,5.6,0,0,0-.576,2.336,2.734,2.734,0,0,0,.48,1.632,1.653,1.653,0,0,0,1.44.672q1.792,0,4.576-2.5a26.721,26.721,0,0,0,5.408-7.488l1.216,1.216a25.49,25.49,0,0,1-5.888,8.544q-3.52,3.232-7.1,3.232a4.777,4.777,0,0,1-3.936-1.7,5.976,5.976,0,0,1-1.376-3.872,35.062,35.062,0,0,1-4.928,5.056A6.952,6.952,0,0,1,118.5,157.008Zm1.344-3.264q2.24,0,5.216-3.232a96.636,96.636,0,0,0,6.752-8.416l1.28-1.728a.579.579,0,0,1,.512-.32l.256.064a7.951,7.951,0,0,0,.32-2.368q0-3.328-2.688-3.328-2.816,0-5.888,3.008a26.538,26.538,0,0,0-5.152,7.168,16.54,16.54,0,0,0-2.08,7.1,2.7,2.7,0,0,0,.352,1.568A1.3,1.3,0,0,0,119.84,153.744Zm42.112,2.688a2.9,2.9,0,0,1-2.816-1.7,12.054,12.054,0,0,1-.96-4.7l.064-1.536q0-1.28.128-2.816a41.771,41.771,0,0,1-4.992,7.392q-2.5,2.848-5.12,2.848a4.285,4.285,0,0,1-3.552-1.952,7.7,7.7,0,0,1-1.44-4.7,21.185,21.185,0,0,1,1.024-5.824,31.821,31.821,0,0,1,2.4-6.016q1.376-2.56,2.4-2.56a3.822,3.822,0,0,1,1.632.576,2.622,2.622,0,0,1,1.312,1.28,26.576,26.576,0,0,0-2.752,5.632,18.552,18.552,0,0,0-1.408,6.4,8.551,8.551,0,0,0,.384,2.528,1.563,1.563,0,0,0,1.6,1.248q3.264,0,9.152-11.456a37.941,37.941,0,0,1,.9-3.9,3.865,3.865,0,0,1,.768-1.568,1.552,1.552,0,0,1,1.088-.352,3.208,3.208,0,0,1,1.888.48,1.588,1.588,0,0,1,.672,1.376,6.142,6.142,0,0,1-.32,1.152,30.019,30.019,0,0,0-1.024,5.216,52.873,52.873,0,0,0-.384,6.368,9.852,9.852,0,0,0,.224,2.5.919.919,0,0,0,.928.768q1.664,0,4.384-3.744a56.3,56.3,0,0,0,5.024-8.48q0-4.544.928-6.336a2.851,2.851,0,0,1,2.592-1.792,2.483,2.483,0,0,1,2.112.928,3.028,3.028,0,0,1,.7,1.824,2.636,2.636,0,0,1-.352,1.28q-.352.64-.48.9a12.557,12.557,0,0,0-1.28,5.7q0,4.736,2.816,4.736a3.563,3.563,0,0,0,2.4-1.088,13.4,13.4,0,0,0,2.528-3.776l1.216.96a10.78,10.78,0,0,1-3.04,4.448,5.82,5.82,0,0,1-3.616,1.376,4.89,4.89,0,0,1-3.488-1.44,10.081,10.081,0,0,1-2.4-3.872,47.63,47.63,0,0,1-5.952,8.352Q164.768,156.432,161.952,156.432Zm25.344.576a5.14,5.14,0,0,1-3.744-1.472,5.556,5.556,0,0,1-1.5-4.16,16.744,16.744,0,0,1,2.72-8.32,26.764,26.764,0,0,1,6.944-7.808,13.959,13.959,0,0,1,8.448-3.2,7.531,7.531,0,0,1,4.7,1.44,4.437,4.437,0,0,1,1.888,3.68q0,2.944-3.648,3.072,2.3.7,2.3,1.92a3.439,3.439,0,0,1-.448,1.344q-.448.9-1.024,1.856a28.506,28.506,0,0,0-1.6,2.912,5.6,5.6,0,0,0-.576,2.336,2.734,2.734,0,0,0,.48,1.632,1.653,1.653,0,0,0,1.44.672q1.792,0,4.576-2.5a26.721,26.721,0,0,0,5.408-7.488l1.216,1.216a25.49,25.49,0,0,1-5.888,8.544q-3.52,3.232-7.1,3.232a4.777,4.777,0,0,1-3.936-1.7,5.976,5.976,0,0,1-1.376-3.872,35.063,35.063,0,0,1-4.928,5.056A6.952,6.952,0,0,1,187.3,157.008Zm1.344-3.264q2.24,0,5.216-3.232a96.637,96.637,0,0,0,6.752-8.416l1.28-1.728a.579.579,0,0,1,.512-.32l.256.064a7.951,7.951,0,0,0,.32-2.368q0-3.328-2.688-3.328-2.816,0-5.888,3.008a26.538,26.538,0,0,0-5.152,7.168,16.54,16.54,0,0,0-2.08,7.1,2.7,2.7,0,0,0,.352,1.568A1.3,1.3,0,0,0,188.64,153.744ZM233.7,155.28a5.429,5.429,0,0,1-3.776-1.216,4.109,4.109,0,0,1-1.344-3.2,7.622,7.622,0,0,1,.288-1.92q.288-1.088.608-2.176a16.835,16.835,0,0,0,.9-4.352,2.5,2.5,0,0,0-.64-1.888,2.232,2.232,0,0,0-1.6-.608q-3.392,0-6.848,4.256a98.335,98.335,0,0,0-7.424,10.784,4.9,4.9,0,0,1-4.16-1.856l.576-1.6q3.776-9.152,3.776-13.568a4.846,4.846,0,0,1,1.472-1.056,4.142,4.142,0,0,1,1.856-.48,2.427,2.427,0,0,1,1.664.512,1.787,1.787,0,0,1,.576,1.408,24.9,24.9,0,0,1-1.088,5.7,33.192,33.192,0,0,1,5.984-6.272,9.954,9.954,0,0,1,6.112-2.432,4.792,4.792,0,0,1,3.968,1.76A6.5,6.5,0,0,1,236,141.264a10.093,10.093,0,0,1-.352,2.688,21.281,21.281,0,0,1-1.056,2.88,12.1,12.1,0,0,0-1.088,4.032,1.923,1.923,0,0,0,.448,1.408,1.481,1.481,0,0,0,1.088.448q2.112,0,4.576-2.912a34.441,34.441,0,0,0,4.448-6.88l1.088.9a30.56,30.56,0,0,1-5.088,8.384A8.4,8.4,0,0,1,233.7,155.28Z" transform="translate(273.024 46.208)" fill="#fff"/>
</svg>
